<svg xmlns="http://www.w3.org/2000/svg" width="420mm" height="297mm" viewBox="0 0 420 297" font-family="'GOST type A','ISOCPEUR','Arial Narrow',Arial,sans-serif" data-sheet="tile" data-scale="1:20"><rect width="420" height="297" fill="#fff"/><rect x="20" y="5" width="395" height="287" fill="none" stroke="#000" stroke-width="0.7"/><text x="25" y="13.2" font-size="7" font-weight="700" fill="#000">Раскладка плитки. Фартук кухни</text><text x="25" y="17.8" font-size="2.5" fill="#333">Раскладка от чистовых размеров · размеры в мм · высоты фартука от чистого пола</text><g data-el="view" data-apron="r6" data-scale="1:20"><g data-el="view-title"><g data-el="joint-width"><text x="25" y="23.6" font-size="2.5" font-weight="700" fill="#000">Фрагмент 1. Кухня (пом. 6), фартук, стена А. 600×600, шов 2 мм, М 1:20</text></g></g><g data-el="tile-cells"><rect x="34" y="37" width="29.88" height="30" fill="#eadfc4"/><rect x="64" y="34.5" width="30" height="2.36" fill="#e9a99a"/><rect x="94.12" y="37" width="29.88" height="30" fill="#eadfc4"/></g><g data-el="tile-grid"><line x1="63.93" y1="67" x2="63.93" y2="37" stroke="#6f6f6f" stroke-width="0.18"/><line x1="94.07" y1="67" x2="94.07" y2="37" stroke="#6f6f6f" stroke-width="0.18"/><line x1="64" y1="36.91" x2="94" y2="36.91" stroke="#6f6f6f" stroke-width="0.18"/></g><rect x="34" y="37" width="30" height="30" fill="none" stroke="#000" stroke-width="0.35"/><rect x="64" y="34.5" width="30" height="32.5" fill="none" stroke="#000" stroke-width="0.35"/><rect x="94" y="37" width="30" height="30" fill="none" stroke="#000" stroke-width="0.35"/><g data-el="context"><line x1="33" y1="67" x2="125" y2="67" stroke="#000" stroke-width="0.5"/><line x1="34" y1="69" x2="124" y2="69" stroke="#000" stroke-width="0.25"/><rect x="34" y="27" width="30" height="10" fill="none" stroke="#333" stroke-width="0.25" stroke-dasharray="2 1"/><rect x="94" y="27" width="30" height="10" fill="none" stroke="#333" stroke-width="0.25" stroke-dasharray="2 1"/></g><g data-el="tile-start"><line x1="79" y1="32.5" x2="79" y2="69" stroke="#b03a2e" stroke-width="0.25" stroke-dasharray="4 1 0.6 1"/><line x1="79" y1="31.5" x2="83" y2="31.5" stroke="#b03a2e" stroke-width="0.25"/><path d="M 84.4 31.5 L 83 30.7 L 83 32.3 Z" fill="#b03a2e"/><line x1="79" y1="31.5" x2="75" y2="31.5" stroke="#b03a2e" stroke-width="0.25"/><path d="M 73.6 31.5 L 75 30.7 L 75 32.3 Z" fill="#b03a2e"/><line x1="34" y1="75.5" x2="34" y2="91.5" stroke="#000" stroke-width="0.25"/><line x1="79" y1="75.5" x2="79" y2="91.5" stroke="#000" stroke-width="0.25"/><line x1="34" y1="89.5" x2="79" y2="89.5" stroke="#000" stroke-width="0.25"/><line x1="32.94" y1="90.56" x2="35.06" y2="88.44" stroke="#000" stroke-width="0.5"/><line x1="77.94" y1="90.56" x2="80.06" y2="88.44" stroke="#000" stroke-width="0.5"/><text x="56.5" y="88.5" font-size="2.5" text-anchor="middle" fill="#000">900</text></g><g data-el="cut-dim"><line x1="34" y1="75.5" x2="34" y2="83.5" stroke="#000" stroke-width="0.25"/><line x1="63.93" y1="75.5" x2="63.93" y2="83.5" stroke="#000" stroke-width="0.25"/><line x1="34" y1="81.5" x2="63.93" y2="81.5" stroke="#000" stroke-width="0.25"/><line x1="32.94" y1="82.56" x2="35.06" y2="80.44" stroke="#000" stroke-width="0.5"/><line x1="62.87" y1="82.56" x2="64.99" y2="80.44" stroke="#000" stroke-width="0.5"/><text x="48.97" y="80.5" font-size="2.5" text-anchor="middle" fill="#000">598</text><line x1="63.93" y1="75.5" x2="63.93" y2="83.5" stroke="#000" stroke-width="0.25"/><line x1="94.07" y1="75.5" x2="94.07" y2="83.5" stroke="#000" stroke-width="0.25"/><line x1="63.93" y1="81.5" x2="94.07" y2="81.5" stroke="#000" stroke-width="0.25"/><line x1="62.87" y1="82.56" x2="64.99" y2="80.44" stroke="#000" stroke-width="0.5"/><line x1="93.01" y1="82.56" x2="95.13" y2="80.44" stroke="#000" stroke-width="0.5"/><text x="80.2" y="80.5" font-size="2.5" text-anchor="start" fill="#000">601</text><line x1="94.07" y1="75.5" x2="94.07" y2="83.5" stroke="#000" stroke-width="0.25"/><line x1="124" y1="75.5" x2="124" y2="83.5" stroke="#000" stroke-width="0.25"/><line x1="94.07" y1="81.5" x2="124" y2="81.5" stroke="#000" stroke-width="0.25"/><line x1="93.01" y1="82.56" x2="95.13" y2="80.44" stroke="#000" stroke-width="0.5"/><line x1="122.94" y1="82.56" x2="125.06" y2="80.44" stroke="#000" stroke-width="0.5"/><text x="109.03" y="80.5" font-size="2.5" text-anchor="middle" fill="#000">598</text><line x1="33" y1="37" x2="26.5" y2="37" stroke="#000" stroke-width="0.25"/><line x1="33" y1="67" x2="26.5" y2="67" stroke="#000" stroke-width="0.25"/><line x1="28.5" y1="37" x2="28.5" y2="67" stroke="#000" stroke-width="0.25"/><line x1="27.44" y1="38.06" x2="29.56" y2="35.94" stroke="#000" stroke-width="0.5"/><line x1="27.44" y1="68.06" x2="29.56" y2="65.94" stroke="#000" stroke-width="0.5"/><text x="27.5" y="52" font-size="2.5" text-anchor="middle" transform="rotate(-90 27.5 52)" fill="#000">600</text><line x1="125" y1="37" x2="131.5" y2="37" stroke="#000" stroke-width="0.25"/><line x1="125" y1="67" x2="131.5" y2="67" stroke="#000" stroke-width="0.25"/><line x1="129.5" y1="37" x2="129.5" y2="67" stroke="#000" stroke-width="0.25"/><line x1="128.44" y1="38.06" x2="130.56" y2="35.94" stroke="#000" stroke-width="0.5"/><line x1="128.44" y1="68.06" x2="130.56" y2="65.94" stroke="#000" stroke-width="0.5"/><text x="128.5" y="52" font-size="2.5" text-anchor="middle" transform="rotate(-90 128.5 52)" fill="#000">600</text></g><g data-el="dims" data-kind="binding"><line x1="34" y1="75.5" x2="34" y2="99.5" stroke="#000" stroke-width="0.25"/><line x1="63.93" y1="75.5" x2="63.93" y2="99.5" stroke="#000" stroke-width="0.25"/><line x1="34" y1="97.5" x2="63.93" y2="97.5" stroke="#000" stroke-width="0.25"/><line x1="32.94" y1="98.56" x2="35.06" y2="96.44" stroke="#000" stroke-width="0.5"/><line x1="62.87" y1="98.56" x2="64.99" y2="96.44" stroke="#000" stroke-width="0.5"/><text x="48.97" y="96.5" font-size="2.5" text-anchor="middle" fill="#000">600</text><line x1="63.93" y1="75.5" x2="63.93" y2="99.5" stroke="#000" stroke-width="0.25"/><line x1="94.07" y1="75.5" x2="94.07" y2="99.5" stroke="#000" stroke-width="0.25"/><line x1="63.93" y1="97.5" x2="94.07" y2="97.5" stroke="#000" stroke-width="0.25"/><line x1="62.87" y1="98.56" x2="64.99" y2="96.44" stroke="#000" stroke-width="0.5"/><line x1="93.01" y1="98.56" x2="95.13" y2="96.44" stroke="#000" stroke-width="0.5"/><text x="79" y="96.5" font-size="2.5" text-anchor="middle" fill="#000">600</text><line x1="94.07" y1="75.5" x2="94.07" y2="99.5" stroke="#000" stroke-width="0.25"/><line x1="124" y1="75.5" x2="124" y2="99.5" stroke="#000" stroke-width="0.25"/><line x1="94.07" y1="97.5" x2="124" y2="97.5" stroke="#000" stroke-width="0.25"/><line x1="93.01" y1="98.56" x2="95.13" y2="96.44" stroke="#000" stroke-width="0.5"/><line x1="122.94" y1="98.56" x2="125.06" y2="96.44" stroke="#000" stroke-width="0.5"/><text x="109.03" y="96.5" font-size="2.5" text-anchor="middle" fill="#000">600</text></g><g data-el="wall-points"><rect x="40.4" y="53.4" width="2.2" height="2.2" fill="#fff" stroke="#000" stroke-width="0.35"/><rect x="55.4" y="53.4" width="2.2" height="2.2" fill="#fff" stroke="#000" stroke-width="0.35"/><rect x="97.9" y="53.4" width="2.2" height="2.2" fill="#fff" stroke="#000" stroke-width="0.35"/><rect x="112.9" y="53.4" width="2.2" height="2.2" fill="#fff" stroke="#000" stroke-width="0.35"/><line x1="42.19" y1="53.52" x2="43.9" y2="51.1" stroke="#000" stroke-width="0.18"/><line x1="43.9" y1="51.1" x2="57.5" y2="51.1" stroke="#000" stroke-width="0.18"/><text x="44.2" y="50.4" font-size="2.5" fill="#000">Р16 Н=1150</text><line x1="57.19" y1="53.52" x2="58.9" y2="51.1" stroke="#000" stroke-width="0.18"/><line x1="58.9" y1="51.1" x2="72.5" y2="51.1" stroke="#000" stroke-width="0.18"/><text x="59.2" y="50.4" font-size="2.5" fill="#000">Р17 Н=1150</text><line x1="99.69" y1="53.52" x2="101.4" y2="51.1" stroke="#000" stroke-width="0.18"/><line x1="101.4" y1="51.1" x2="115" y2="51.1" stroke="#000" stroke-width="0.18"/><text x="101.7" y="50.4" font-size="2.5" fill="#000">Р18 Н=1150</text><line x1="113.61" y1="55.64" x2="111.6" y2="61.5" stroke="#000" stroke-width="0.18"/><line x1="98" y1="61.5" x2="111.6" y2="61.5" stroke="#000" stroke-width="0.18"/><text x="98.3" y="60.8" font-size="2.5" fill="#000">Р19 Н=1150</text></g><text x="35" y="72.2" font-size="2.5" fill="#000">столешница, верх Н=900</text><text x="35" y="30.2" font-size="2.5" fill="#333">навесной шкаф, низ Н=1500</text></g><g data-el="legend"><text x="138" y="23.5" font-size="3.5" font-weight="700" fill="#000">Условные обозначения</text><rect x="138.5" y="28.5" width="7" height="4" fill="#fff" stroke="#6f6f6f" stroke-width="0.18"/><text x="149" y="31.4" font-size="2.5" fill="#000">плитка целая; тонкая линия — шов</text><rect x="138.5" y="35.5" width="7" height="4" fill="#eadfc4" stroke="#6f6f6f" stroke-width="0.18"/><text x="149" y="38.4" font-size="2.5" fill="#000">плитка с подрезкой (размер — на цепочке)</text><line x1="138.5" y1="44.5" x2="143.5" y2="44.5" stroke="#b03a2e" stroke-width="0.25" stroke-dasharray="4 1 0.6 1"/><path d="M 145.8 44.5 L 143.8 43.7 L 143.8 45.3 Z" fill="#b03a2e"/><text x="149" y="45.4" font-size="2.5" fill="#000">ось старта; стрелки — направление укладки</text><rect x="140.9" y="50.4" width="2.2" height="2.2" fill="#fff" stroke="#000" stroke-width="0.35"/><text x="149" y="52.4" font-size="2.5" fill="#000">электроточка: марка и Н — по листам ЭОМ</text><rect x="138.5" y="58.15" width="7" height="0.7" fill="#000"/><text x="149" y="59.4" font-size="2.5" fill="#000">столешница (верх)</text><rect x="138.5" y="63.5" width="7" height="4" fill="none" stroke="#333" stroke-width="0.25" stroke-dasharray="2 1"/><text x="149" y="66.4" font-size="2.5" fill="#000">навесной шкаф над фартуком</text></g><g data-el="spec"><text x="208.3" y="23" font-size="3.5" font-weight="700" fill="#000">Подсчёт плитки</text><rect x="208.3" y="25" width="107" height="14" fill="none" stroke="#000" stroke-width="0.5"/><line x1="208.3" y1="33" x2="315.3" y2="33" stroke="#000" stroke-width="0.5"/><text x="229.3" y="30.3" font-size="2.5" text-anchor="middle" fill="#000">Поверхность</text><line x1="250.3" y1="25" x2="250.3" y2="39" stroke="#000" stroke-width="0.25"/><text x="258.8" y="30.3" font-size="2.5" text-anchor="middle" fill="#000">Формат</text><line x1="267.3" y1="25" x2="267.3" y2="39" stroke="#000" stroke-width="0.25"/><text x="273.3" y="30.3" font-size="2.5" text-anchor="middle" fill="#000">S, м²</text><line x1="279.3" y1="25" x2="279.3" y2="39" stroke="#000" stroke-width="0.25"/><text x="284.8" y="30.3" font-size="2.5" text-anchor="middle" fill="#000">Целых</text><line x1="290.3" y1="25" x2="290.3" y2="39" stroke="#000" stroke-width="0.25"/><text x="295.3" y="30.3" font-size="2.5" text-anchor="middle" fill="#000">Подр.</text><line x1="300.3" y1="25" x2="300.3" y2="39" stroke="#000" stroke-width="0.25"/><text x="307.8" y="30.3" font-size="2.5" text-anchor="middle" fill="#000">С запасом</text><text x="209.8" y="37.3" font-size="2.5" text-anchor="start" fill="#000">Кухня, фартук (ст. А)</text><text x="251.8" y="37.3" font-size="2.5" text-anchor="start" fill="#000">600×600</text><text x="277.8" y="37.3" font-size="2.5" text-anchor="end" fill="#000">1,11</text><text x="280.8" y="37.3" font-size="2.5" text-anchor="start" fill="#000">1</text><text x="291.8" y="37.3" font-size="2.5" text-anchor="start" fill="#000">3</text><text x="301.8" y="37.3" font-size="2.5" text-anchor="start" fill="#000">5</text></g><g data-el="spec"><text x="208.3" y="47" font-size="3.5" font-weight="700" fill="#000">Сдвиг розеток фартука под раскладку</text><rect x="208.3" y="49" width="132" height="45.6" fill="none" stroke="#000" stroke-width="0.5"/><line x1="208.3" y1="57" x2="340.3" y2="57" stroke="#000" stroke-width="0.5"/><text x="221.3" y="54.3" font-size="2.5" text-anchor="middle" fill="#000">Точка (ЭОМ)</text><line x1="234.3" y1="49" x2="234.3" y2="94.6" stroke="#000" stroke-width="0.25"/><text x="251.3" y="54.3" font-size="2.5" text-anchor="middle" fill="#000">Проект: от угла / Н</text><line x1="268.3" y1="49" x2="268.3" y2="94.6" stroke="#000" stroke-width="0.25"/><text x="287.3" y="54.3" font-size="2.5" text-anchor="middle" fill="#000">Под раскладку: от угла / Н</text><line x1="306.3" y1="49" x2="306.3" y2="94.6" stroke="#000" stroke-width="0.25"/><text x="323.3" y="54.3" font-size="2.5" text-anchor="middle" fill="#000">Сдвиг, мм</text><line x1="208.3" y1="66.4" x2="340.3" y2="66.4" stroke="#000" stroke-width="0.18"/><text x="209.8" y="61.3" font-size="2.5" text-anchor="start" fill="#000">Р16</text><text x="235.8" y="61.3" font-size="2.5" text-anchor="start" fill="#000">150 / 1150</text><text x="269.8" y="61.3" font-size="2.5" text-anchor="start" fill="#000">297 / 1200</text><text x="307.8" y="61.3" font-size="2.5" text-anchor="start" fill="#000">+147 от шва; Н +50</text><text x="307.8" y="64.7" font-size="2.5" text-anchor="start" fill="#000">ось ряда</text><line x1="208.3" y1="75.8" x2="340.3" y2="75.8" stroke="#000" stroke-width="0.18"/><text x="209.8" y="70.7" font-size="2.5" text-anchor="start" fill="#000">Р17</text><text x="235.8" y="70.7" font-size="2.5" text-anchor="start" fill="#000">450 / 1150</text><text x="269.8" y="70.7" font-size="2.5" text-anchor="start" fill="#000">599 / 1200</text><text x="307.8" y="70.7" font-size="2.5" text-anchor="start" fill="#000">+149 на шов; Н +50</text><text x="307.8" y="74.1" font-size="2.5" text-anchor="start" fill="#000">ось ряда</text><line x1="208.3" y1="85.2" x2="340.3" y2="85.2" stroke="#000" stroke-width="0.18"/><text x="209.8" y="80.1" font-size="2.5" text-anchor="start" fill="#000">Р18</text><text x="235.8" y="80.1" font-size="2.5" text-anchor="start" fill="#000">1300 / 1150</text><text x="269.8" y="80.1" font-size="2.5" text-anchor="start" fill="#000">1201 / 1200</text><text x="307.8" y="80.1" font-size="2.5" text-anchor="start" fill="#000">−99 на шов; Н +50</text><text x="307.8" y="83.5" font-size="2.5" text-anchor="start" fill="#000">ось ряда</text><text x="209.8" y="89.5" font-size="2.5" text-anchor="start" fill="#000">Р19</text><text x="235.8" y="89.5" font-size="2.5" text-anchor="start" fill="#000">1600 / 1150</text><text x="269.8" y="89.5" font-size="2.5" text-anchor="start" fill="#000">1503 / 1200</text><text x="307.8" y="89.5" font-size="2.5" text-anchor="start" fill="#000">−97 от шва; Н +50</text><text x="307.8" y="92.9" font-size="2.5" text-anchor="start" fill="#000">ось ряда</text></g><g data-el="notes"><text x="25" y="110" font-size="3.5" font-weight="700" fill="#000">Примечания</text><text x="25" y="115" font-size="2.5" fill="#000">1. Фартук, Кухня: 600×600 горизонтально, шов 2 мм; зоны 600 мм — 900…1500, 600 мм — 900…1550, 600 мм — 900…1500 (от столешницы до низа навесного шкафа, без шкафа — 650 мм). Старт от</text><text x="25" y="118.6" font-size="2.5" fill="#000">центра участка, подрезки 598 мм. Площадь 1,11 м² — как в ведомости отделки.</text><text x="25" y="122.2" font-size="2.5" fill="#000">2. Фартук — после монтажа столешницы, низ на 2–3 мм выше неё, шов со столешницей — санитарный герметик; навесные шкафы — после фартука. Торцы у пенала и стены — профиль или запил 45°.</text><text x="25" y="125.8" font-size="2.5" fill="#000">3. Фартук, Кухня: в зоне до отм. 1550 верхний ряд подрезан 47 мм — меньше 1/3 плитки; полоса прикрыта корпусом навесного модуля и на виду не остаётся. Раскладкой не снимается: убрать</text><text x="25" y="129.4" font-size="2.5" fill="#000">подрезку можно, только выровняв низ этого модуля с соседними (1500 мм) — решение мебельщика.</text><text x="25" y="133" font-size="2.5" fill="#000">4. Розетки из таблицы переносятся до черновой электрики: по высоте — на ось ряда плитки, от вертикального шва крупной плитки — не ближе 60 мм. Привязка — от левого края фартука на</text><text x="25" y="136.6" font-size="2.5" fill="#000">развёртке.</text><text x="25" y="140.2" font-size="2.5" fill="#000">5. Клей, затирка и итог по форматам — в ведомостях листа «Раскладка плитки. Планы полов».</text></g><g data-el="scale-bar"><line x1="25" y1="287" x2="75" y2="287" stroke="#000" stroke-width="0.5"/><line x1="25" y1="285.5" x2="25" y2="288.5" stroke="#000" stroke-width="0.25"/><line x1="75" y1="285.5" x2="75" y2="288.5" stroke="#000" stroke-width="0.25"/><text x="77" y="288" font-size="2.5" fill="#000">1000 мм · печать 1:1</text></g><g data-el="stamp"><rect x="230" y="237" width="185" height="55" fill="none" stroke="#000" stroke-width="0.7"/><line x1="230" y1="242" x2="295" y2="242" stroke="#000" stroke-width="0.25"/><line x1="230" y1="247" x2="295" y2="247" stroke="#000" stroke-width="0.25"/><line x1="230" y1="252" x2="295" y2="252" stroke="#000" stroke-width="0.25"/><line x1="230" y1="257" x2="295" y2="257" stroke="#000" stroke-width="0.5"/><line x1="230" y1="262" x2="295" y2="262" stroke="#000" stroke-width="0.5"/><line x1="230" y1="267" x2="295" y2="267" stroke="#000" stroke-width="0.25"/><line x1="230" y1="272" x2="295" y2="272" stroke="#000" stroke-width="0.25"/><line x1="230" y1="277" x2="295" y2="277" stroke="#000" stroke-width="0.25"/><line x1="230" y1="282" x2="295" y2="282" stroke="#000" stroke-width="0.25"/><line x1="230" y1="287" x2="295" y2="287" stroke="#000" stroke-width="0.25"/><line x1="240" y1="237" x2="240" y2="262" stroke="#000" stroke-width="0.5"/><line x1="250" y1="237" x2="250" y2="262" stroke="#000" stroke-width="0.5"/><line x1="260" y1="237" x2="260" y2="262" stroke="#000" stroke-width="0.5"/><line x1="270" y1="237" x2="270" y2="262" stroke="#000" stroke-width="0.5"/><line x1="285" y1="237" x2="285" y2="262" stroke="#000" stroke-width="0.5"/><line x1="250" y1="262" x2="250" y2="292" stroke="#000" stroke-width="0.5"/><line x1="270" y1="262" x2="270" y2="292" stroke="#000" stroke-width="0.5"/><line x1="285" y1="262" x2="285" y2="292" stroke="#000" stroke-width="0.5"/><line x1="295" y1="237" x2="295" y2="292" stroke="#000" stroke-width="0.7"/><text x="235" y="260.8" font-size="2.5" text-anchor="middle" fill="#000">Изм.</text><text x="245" y="260.8" font-size="2.5" text-anchor="middle" fill="#000">Кол.уч</text><text x="255" y="260.8" font-size="2.5" text-anchor="middle" fill="#000">Лист</text><text x="265" y="260.8" font-size="2.5" text-anchor="middle" fill="#000">№ док.</text><text x="277.5" y="260.8" font-size="2.5" text-anchor="middle" fill="#000">Подп.</text><text x="290" y="260.8" font-size="2.5" text-anchor="middle" fill="#000">Дата</text><text x="231" y="265.8" font-size="2.5" fill="#000">Разраб.</text><text x="251" y="265.8" font-size="2.5" fill="#000">Кырлан А.С.</text><text x="290" y="265.8" font-size="2.5" text-anchor="middle" textLength="8.6" lengthAdjust="spacingAndGlyphs" fill="#000">23.09.26</text><text x="231" y="270.8" font-size="2.5" fill="#000">Пров.</text><text x="231" y="275.8" font-size="2.5" fill="#000">ГИП</text><text x="231" y="285.8" font-size="2.5" fill="#000">Н. контр.</text><text x="231" y="290.8" font-size="2.5" fill="#000">Утв.</text><text x="355" y="244.3" font-size="5" text-anchor="middle" font-weight="700" fill="#000">ГД-2026-004-АИ</text><line x1="295" y1="247" x2="415" y2="247" stroke="#000" stroke-width="0.7"/><text x="297" y="253.6" font-size="3.5" fill="#000">Четырёхкомнатная квартира</text><text x="297" y="259.2" font-size="2.5" fill="#000">Общая площадь 102,1 м²</text><line x1="295" y1="262" x2="415" y2="262" stroke="#000" stroke-width="0.7"/><text x="297" y="268.7" font-size="2.5" fill="#000">Дизайн-проект интерьера четырёхкомнатной</text><text x="297" y="272.5" font-size="2.5" fill="#000">квартиры</text><line x1="365" y1="262" x2="365" y2="292" stroke="#000" stroke-width="0.7"/><line x1="365" y1="267" x2="415" y2="267" stroke="#000" stroke-width="0.25"/><line x1="380" y1="262" x2="380" y2="277" stroke="#000" stroke-width="0.5"/><line x1="395" y1="262" x2="395" y2="277" stroke="#000" stroke-width="0.5"/><text x="372.5" y="265.8" font-size="2.5" text-anchor="middle" fill="#000">Стадия</text><text x="387.5" y="265.8" font-size="2.5" text-anchor="middle" fill="#000">Лист</text><text x="405" y="265.8" font-size="2.5" text-anchor="middle" fill="#000">Листов</text><text x="372.5" y="273.8" font-size="3.5" text-anchor="middle" fill="#000">РП</text><text x="387.5" y="273.8" font-size="3.5" text-anchor="middle" fill="#000">31</text><text x="405" y="273.8" font-size="3.5" text-anchor="middle" fill="#000">101</text><line x1="295" y1="277" x2="415" y2="277" stroke="#000" stroke-width="0.7"/><text x="330" y="282.2" font-size="3.5" text-anchor="middle" font-weight="700" fill="#000">Раскладка плитки. Фартук кухни</text><text x="330" y="290.2" font-size="2.5" text-anchor="middle" fill="#000">М 1:20</text><text x="390" y="285.8" font-size="2.5" text-anchor="middle" font-weight="700" fill="#000">Кырлан Александр Сергеевич</text></g></svg>