<svg xmlns="http://www.w3.org/2000/svg" width="420mm" height="297mm" viewBox="0 0 420 297" font-family="'GOST type A','ISOCPEUR','Arial Narrow',Arial,sans-serif" data-sheet="furniture-item" data-scale="1:25"><rect width="420" height="297" fill="#fff"/><rect x="20" y="5" width="395" height="287" fill="none" stroke="#000" stroke-width="0.7"/><text x="25" y="13.2" font-size="7" font-weight="700" fill="#000">Система хранения М9</text><text x="25" y="17.8" font-size="2.5" fill="#333">Тёмная комната (пом. 3) · вид из помещения · размеры в мм, отметки в м</text><defs><pattern id="fm-hatch" patternUnits="userSpaceOnUse" width="2" height="2"><line x1="0" y1="2" x2="2" y2="0" stroke="#000" stroke-width="0.18"/></pattern><pattern id="fm-appl" patternUnits="userSpaceOnUse" width="3" height="3"><line x1="0" y1="3" x2="3" y2="0" stroke="#000" stroke-width="0.18"/><line x1="0" y1="0" x2="3" y2="3" stroke="#000" stroke-width="0.18"/></pattern><pattern id="fm-wall" patternUnits="userSpaceOnUse" width="1.6" height="1.6"><line x1="0" y1="1.6" x2="1.6" y2="0" stroke="#000" stroke-width="0.18"/></pattern></defs><text x="93.92" y="24" font-size="3.5" text-anchor="middle" font-weight="700" text-decoration="underline" fill="#000">Общий вид</text><g data-el="elevation"><path d="M 47.92 142 L 139.92 142" fill="none" stroke="#000" stroke-width="0.5"/><path d="M 47.92 38 L 139.92 38" fill="none" stroke="#000" stroke-width="0.5"/><rect x="47.92" y="36.4" width="92" height="1.6" fill="url(#fm-wall)" stroke="none"/><g data-el="level"><path d="M 31.92 141 L 32.92 142 L 33.92 141" fill="none" stroke="#000" stroke-width="0.25"/><line x1="32.92" y1="141" x2="44.92" y2="141" stroke="#000" stroke-width="0.25"/><text x="33.92" y="140.2" font-size="2.5" fill="#000">±0,000</text><text x="33.92" y="144.6" font-size="2.5" fill="#000">чистый пол</text></g><g data-el="level"><path d="M 31.92 37 L 32.92 38 L 33.92 37" fill="none" stroke="#000" stroke-width="0.25"/><line x1="32.92" y1="37" x2="44.92" y2="37" stroke="#000" stroke-width="0.25"/><text x="33.92" y="36.2" font-size="2.5" fill="#000">+2,600</text><text x="33.92" y="40.6" font-size="2.5" fill="#000">потолок</text></g><rect x="50.32" y="46" width="87.2" height="96" fill="#ece7df" stroke="#000" stroke-width="0.35"/><rect x="50.96" y="138.8" width="85.92" height="3.2" fill="#fff" stroke="#000" stroke-width="0.25"/><rect x="50.96" y="46.64" width="28.21" height="91.52" fill="#f7f4ef" stroke="#000" stroke-width="0.18"/><rect x="79.81" y="46.64" width="28.21" height="91.52" fill="#f7f4ef" stroke="#000" stroke-width="0.18"/><rect x="108.67" y="46.64" width="28.21" height="91.52" fill="#f7f4ef" stroke="#000" stroke-width="0.18"/><rect x="50.32" y="46" width="0.64" height="92.8" fill="#ece7df" stroke="#000" stroke-width="0.25"/><rect x="136.88" y="46" width="0.64" height="92.8" fill="#ece7df" stroke="#000" stroke-width="0.25"/><rect x="50.96" y="138.16" width="85.92" height="0.64" fill="#ece7df" stroke="#000" stroke-width="0.25"/><rect x="50.96" y="46" width="85.92" height="0.64" fill="#ece7df" stroke="#000" stroke-width="0.25"/><rect x="79.17" y="46.64" width="0.64" height="91.52" fill="#ece7df" stroke="#000" stroke-width="0.25"/><rect x="108.03" y="46.64" width="0.64" height="91.52" fill="#ece7df" stroke="#000" stroke-width="0.25"/><rect x="50.96" y="138.8" width="85.92" height="3.2" fill="#fff" stroke="#000" stroke-width="0.25"/><rect x="50.96" y="63.6" width="28.21" height="0.64" fill="#ece7df" stroke="#000" stroke-width="0.25"/><circle cx="65.07" cy="66" r="1.2" fill="#fff" stroke="#000" stroke-width="0.35"/><rect x="55.6" y="68.15" width="18.94" height="2.63" fill="#fff" stroke="none"/><text x="65.07" y="70.2" font-size="2.5" text-anchor="middle" fill="#000">штанга торцевая</text><circle cx="65.07" cy="102.16" r="1.2" fill="#fff" stroke="#000" stroke-width="0.35"/><rect x="55.6" y="104.31" width="18.94" height="2.63" fill="#fff" stroke="none"/><text x="65.07" y="106.36" font-size="2.5" text-anchor="middle" fill="#000">штанга торцевая</text><rect x="55.6" y="82.03" width="18.94" height="2.63" fill="#fff" stroke="none"/><text x="65.07" y="84.08" font-size="2.5" text-anchor="middle" fill="#000">короткая одежда</text><rect x="59.15" y="53.97" width="11.84" height="2.63" fill="#fff" stroke="none"/><text x="65.07" y="56.02" font-size="2.5" text-anchor="middle" fill="#000">антресоль</text><rect x="79.81" y="63.6" width="28.21" height="0.64" fill="#ece7df" stroke="#000" stroke-width="0.25"/><rect x="79.81" y="122.72" width="28.21" height="0.64" fill="#ece7df" stroke="#000" stroke-width="0.25"/><rect x="79.81" y="108.12" width="28.21" height="0.64" fill="#ece7df" stroke="#000" stroke-width="0.25"/><rect x="79.81" y="93.48" width="28.21" height="0.64" fill="#ece7df" stroke="#000" stroke-width="0.25"/><rect x="79.81" y="78.88" width="28.21" height="0.64" fill="#ece7df" stroke="#000" stroke-width="0.25"/><rect x="88" y="53.97" width="11.84" height="2.63" fill="#fff" stroke="none"/><text x="93.92" y="56.02" font-size="2.5" text-anchor="middle" fill="#000">антресоль</text><rect x="108.67" y="63.6" width="28.21" height="0.64" fill="#ece7df" stroke="#000" stroke-width="0.25"/><circle cx="122.77" cy="66" r="1.2" fill="#fff" stroke="#000" stroke-width="0.35"/><rect x="113.3" y="68.15" width="18.94" height="2.63" fill="#fff" stroke="none"/><text x="122.77" y="70.2" font-size="2.5" text-anchor="middle" fill="#000">штанга торцевая</text><rect x="113.9" y="97.23" width="17.75" height="2.63" fill="#fff" stroke="none"/><text x="122.77" y="99.28" font-size="2.5" text-anchor="middle" fill="#000">длинная одежда</text><rect x="116.85" y="53.97" width="11.84" height="2.63" fill="#fff" stroke="none"/><text x="122.77" y="56.02" font-size="2.5" text-anchor="middle" fill="#000">антресоль</text></g><g data-el="dims"><line x1="50.32" y1="143" x2="50.32" y2="151" stroke="#000" stroke-width="0.25"/><line x1="137.52" y1="143" x2="137.52" y2="151" stroke="#000" stroke-width="0.25"/><line x1="50.32" y1="149" x2="137.52" y2="149" stroke="#000" stroke-width="0.25"/><line x1="49.26" y1="150.06" x2="51.38" y2="147.94" stroke="#000" stroke-width="0.5"/><line x1="136.46" y1="150.06" x2="138.58" y2="147.94" stroke="#000" stroke-width="0.5"/><text x="93.92" y="148" font-size="2.5" text-anchor="middle" fill="#000">2180</text><line x1="138.52" y1="38" x2="146.52" y2="38" stroke="#000" stroke-width="0.25"/><line x1="138.52" y1="46" x2="146.52" y2="46" stroke="#000" stroke-width="0.25"/><line x1="144.52" y1="38" x2="144.52" y2="46" stroke="#000" stroke-width="0.25"/><line x1="143.46" y1="39.06" x2="145.58" y2="36.94" stroke="#000" stroke-width="0.5"/><line x1="143.46" y1="47.06" x2="145.58" y2="44.94" stroke="#000" stroke-width="0.5"/><text x="143.52" y="42" font-size="2.5" text-anchor="middle" transform="rotate(-90 143.52 42)" fill="#000">200</text><line x1="138.52" y1="46" x2="146.52" y2="46" stroke="#000" stroke-width="0.25"/><line x1="138.52" y1="138.8" x2="146.52" y2="138.8" stroke="#000" stroke-width="0.25"/><line x1="144.52" y1="46" x2="144.52" y2="138.8" stroke="#000" stroke-width="0.25"/><line x1="143.46" y1="47.06" x2="145.58" y2="44.94" stroke="#000" stroke-width="0.5"/><line x1="143.46" y1="139.86" x2="145.58" y2="137.74" stroke="#000" stroke-width="0.5"/><text x="143.52" y="92.4" font-size="2.5" text-anchor="middle" transform="rotate(-90 143.52 92.4)" fill="#000">2320</text><line x1="138.52" y1="138.8" x2="146.52" y2="138.8" stroke="#000" stroke-width="0.25"/><line x1="138.52" y1="142" x2="146.52" y2="142" stroke="#000" stroke-width="0.25"/><line x1="144.52" y1="138.8" x2="144.52" y2="142" stroke="#000" stroke-width="0.25"/><line x1="143.46" y1="139.86" x2="145.58" y2="137.74" stroke="#000" stroke-width="0.5"/><line x1="143.46" y1="143.06" x2="145.58" y2="140.94" stroke="#000" stroke-width="0.5"/><text x="143.52" y="146" font-size="2.5" text-anchor="middle" transform="rotate(-90 143.52 146)" fill="#000">80</text><line x1="138.52" y1="46" x2="154.52" y2="46" stroke="#000" stroke-width="0.25"/><line x1="138.52" y1="142" x2="154.52" y2="142" stroke="#000" stroke-width="0.25"/><line x1="152.52" y1="46" x2="152.52" y2="142" stroke="#000" stroke-width="0.25"/><line x1="151.46" y1="47.06" x2="153.58" y2="44.94" stroke="#000" stroke-width="0.5"/><line x1="151.46" y1="143.06" x2="153.58" y2="140.94" stroke="#000" stroke-width="0.5"/><text x="151.52" y="94" font-size="2.5" text-anchor="middle" transform="rotate(-90 151.52 94)" fill="#000">2400</text></g><text x="216.84" y="24" font-size="3.5" text-anchor="middle" font-weight="700" text-decoration="underline" fill="#000">Наполнение, размеры в свету</text><g data-el="interior"><path d="M 170.84 142 L 262.84 142" fill="none" stroke="#000" stroke-width="0.5"/><path d="M 170.84 38 L 262.84 38" fill="none" stroke="#000" stroke-width="0.5"/><rect x="170.84" y="36.4" width="92" height="1.6" fill="url(#fm-wall)" stroke="none"/><rect x="173.88" y="46.64" width="28.21" height="91.52" fill="#f7f4ef" stroke="#000" stroke-width="0.18"/><rect x="202.73" y="46.64" width="28.21" height="91.52" fill="#f7f4ef" stroke="#000" stroke-width="0.18"/><rect x="231.59" y="46.64" width="28.21" height="91.52" fill="#f7f4ef" stroke="#000" stroke-width="0.18"/><rect x="173.24" y="46" width="0.64" height="92.8" fill="#ece7df" stroke="#000" stroke-width="0.25"/><rect x="259.8" y="46" width="0.64" height="92.8" fill="#ece7df" stroke="#000" stroke-width="0.25"/><rect x="173.88" y="138.16" width="85.92" height="0.64" fill="#ece7df" stroke="#000" stroke-width="0.25"/><rect x="173.88" y="46" width="85.92" height="0.64" fill="#ece7df" stroke="#000" stroke-width="0.25"/><rect x="202.09" y="46.64" width="0.64" height="91.52" fill="#ece7df" stroke="#000" stroke-width="0.25"/><rect x="230.95" y="46.64" width="0.64" height="91.52" fill="#ece7df" stroke="#000" stroke-width="0.25"/><rect x="173.88" y="138.8" width="85.92" height="3.2" fill="#fff" stroke="#000" stroke-width="0.25"/><rect x="173.88" y="63.6" width="28.21" height="0.64" fill="#ece7df" stroke="#000" stroke-width="0.25"/><circle cx="187.99" cy="66" r="1.2" fill="#fff" stroke="#000" stroke-width="0.35"/><rect x="178.52" y="68.15" width="18.94" height="2.63" fill="#fff" stroke="none"/><text x="187.99" y="70.2" font-size="2.5" text-anchor="middle" fill="#000">штанга торцевая</text><circle cx="187.99" cy="102.16" r="1.2" fill="#fff" stroke="#000" stroke-width="0.35"/><rect x="178.52" y="104.31" width="18.94" height="2.63" fill="#fff" stroke="none"/><text x="187.99" y="106.36" font-size="2.5" text-anchor="middle" fill="#000">штанга торцевая</text><rect x="178.52" y="82.03" width="18.94" height="2.63" fill="#fff" stroke="none"/><text x="187.99" y="84.08" font-size="2.5" text-anchor="middle" fill="#000">короткая одежда</text><rect x="182.07" y="53.97" width="11.84" height="2.63" fill="#fff" stroke="none"/><text x="187.99" y="56.02" font-size="2.5" text-anchor="middle" fill="#000">антресоль</text><rect x="202.73" y="63.6" width="28.21" height="0.64" fill="#ece7df" stroke="#000" stroke-width="0.25"/><rect x="202.73" y="122.72" width="28.21" height="0.64" fill="#ece7df" stroke="#000" stroke-width="0.25"/><rect x="202.73" y="108.12" width="28.21" height="0.64" fill="#ece7df" stroke="#000" stroke-width="0.25"/><rect x="202.73" y="93.48" width="28.21" height="0.64" fill="#ece7df" stroke="#000" stroke-width="0.25"/><rect x="202.73" y="78.88" width="28.21" height="0.64" fill="#ece7df" stroke="#000" stroke-width="0.25"/><rect x="210.92" y="53.97" width="11.84" height="2.63" fill="#fff" stroke="none"/><text x="216.84" y="56.02" font-size="2.5" text-anchor="middle" fill="#000">антресоль</text><rect x="231.59" y="63.6" width="28.21" height="0.64" fill="#ece7df" stroke="#000" stroke-width="0.25"/><circle cx="245.69" cy="66" r="1.2" fill="#fff" stroke="#000" stroke-width="0.35"/><rect x="236.22" y="68.15" width="18.94" height="2.63" fill="#fff" stroke="none"/><text x="245.69" y="70.2" font-size="2.5" text-anchor="middle" fill="#000">штанга торцевая</text><rect x="236.82" y="97.23" width="17.75" height="2.63" fill="#fff" stroke="none"/><text x="245.69" y="99.28" font-size="2.5" text-anchor="middle" fill="#000">длинная одежда</text><rect x="239.77" y="53.97" width="11.84" height="2.63" fill="#fff" stroke="none"/><text x="245.69" y="56.02" font-size="2.5" text-anchor="middle" fill="#000">антресоль</text></g><g data-el="dims"><line x1="173.24" y1="143" x2="173.24" y2="151" stroke="#000" stroke-width="0.25"/><line x1="202.09" y1="143" x2="202.09" y2="151" stroke="#000" stroke-width="0.25"/><line x1="173.24" y1="149" x2="202.09" y2="149" stroke="#000" stroke-width="0.25"/><line x1="172.18" y1="150.06" x2="174.3" y2="147.94" stroke="#000" stroke-width="0.5"/><line x1="201.03" y1="150.06" x2="203.15" y2="147.94" stroke="#000" stroke-width="0.5"/><text x="187.67" y="148" font-size="2.5" text-anchor="middle" fill="#000">721</text><line x1="202.09" y1="143" x2="202.09" y2="151" stroke="#000" stroke-width="0.25"/><line x1="230.95" y1="143" x2="230.95" y2="151" stroke="#000" stroke-width="0.25"/><line x1="202.09" y1="149" x2="230.95" y2="149" stroke="#000" stroke-width="0.25"/><line x1="201.03" y1="150.06" x2="203.15" y2="147.94" stroke="#000" stroke-width="0.5"/><line x1="229.89" y1="150.06" x2="232.01" y2="147.94" stroke="#000" stroke-width="0.5"/><text x="216.52" y="148" font-size="2.5" text-anchor="middle" fill="#000">721</text><line x1="230.95" y1="143" x2="230.95" y2="151" stroke="#000" stroke-width="0.25"/><line x1="260.44" y1="143" x2="260.44" y2="151" stroke="#000" stroke-width="0.25"/><line x1="230.95" y1="149" x2="260.44" y2="149" stroke="#000" stroke-width="0.25"/><line x1="229.89" y1="150.06" x2="232.01" y2="147.94" stroke="#000" stroke-width="0.5"/><line x1="259.38" y1="150.06" x2="261.5" y2="147.94" stroke="#000" stroke-width="0.5"/><text x="245.69" y="148" font-size="2.5" text-anchor="middle" fill="#000">737</text><line x1="261.44" y1="46" x2="269.44" y2="46" stroke="#000" stroke-width="0.25"/><line x1="261.44" y1="63.6" x2="269.44" y2="63.6" stroke="#000" stroke-width="0.25"/><line x1="267.44" y1="46" x2="267.44" y2="63.6" stroke="#000" stroke-width="0.25"/><line x1="266.38" y1="47.06" x2="268.5" y2="44.94" stroke="#000" stroke-width="0.5"/><line x1="266.38" y1="64.66" x2="268.5" y2="62.54" stroke="#000" stroke-width="0.5"/><text x="266.44" y="54.8" font-size="2.5" text-anchor="middle" transform="rotate(-90 266.44 54.8)" fill="#000">440</text><line x1="261.44" y1="63.6" x2="269.44" y2="63.6" stroke="#000" stroke-width="0.25"/><line x1="261.44" y1="78.88" x2="269.44" y2="78.88" stroke="#000" stroke-width="0.25"/><line x1="267.44" y1="63.6" x2="267.44" y2="78.88" stroke="#000" stroke-width="0.25"/><line x1="266.38" y1="64.66" x2="268.5" y2="62.54" stroke="#000" stroke-width="0.5"/><line x1="266.38" y1="79.94" x2="268.5" y2="77.82" stroke="#000" stroke-width="0.5"/><text x="266.44" y="71.24" font-size="2.5" text-anchor="middle" transform="rotate(-90 266.44 71.24)" fill="#000">382</text><line x1="261.44" y1="78.88" x2="269.44" y2="78.88" stroke="#000" stroke-width="0.25"/><line x1="261.44" y1="93.48" x2="269.44" y2="93.48" stroke="#000" stroke-width="0.25"/><line x1="267.44" y1="78.88" x2="267.44" y2="93.48" stroke="#000" stroke-width="0.25"/><line x1="266.38" y1="79.94" x2="268.5" y2="77.82" stroke="#000" stroke-width="0.5"/><line x1="266.38" y1="94.54" x2="268.5" y2="92.42" stroke="#000" stroke-width="0.5"/><text x="266.44" y="86.18" font-size="2.5" text-anchor="middle" transform="rotate(-90 266.44 86.18)" fill="#000">365</text><line x1="261.44" y1="93.48" x2="269.44" y2="93.48" stroke="#000" stroke-width="0.25"/><line x1="261.44" y1="108.12" x2="269.44" y2="108.12" stroke="#000" stroke-width="0.25"/><line x1="267.44" y1="93.48" x2="267.44" y2="108.12" stroke="#000" stroke-width="0.25"/><line x1="266.38" y1="94.54" x2="268.5" y2="92.42" stroke="#000" stroke-width="0.5"/><line x1="266.38" y1="109.18" x2="268.5" y2="107.06" stroke="#000" stroke-width="0.5"/><text x="266.44" y="100.8" font-size="2.5" text-anchor="middle" transform="rotate(-90 266.44 100.8)" fill="#000">366</text><line x1="261.44" y1="108.12" x2="269.44" y2="108.12" stroke="#000" stroke-width="0.25"/><line x1="261.44" y1="122.72" x2="269.44" y2="122.72" stroke="#000" stroke-width="0.25"/><line x1="267.44" y1="108.12" x2="267.44" y2="122.72" stroke="#000" stroke-width="0.25"/><line x1="266.38" y1="109.18" x2="268.5" y2="107.06" stroke="#000" stroke-width="0.5"/><line x1="266.38" y1="123.78" x2="268.5" y2="121.66" stroke="#000" stroke-width="0.5"/><text x="266.44" y="115.42" font-size="2.5" text-anchor="middle" transform="rotate(-90 266.44 115.42)" fill="#000">365</text><line x1="261.44" y1="122.72" x2="269.44" y2="122.72" stroke="#000" stroke-width="0.25"/><line x1="261.44" y1="142" x2="269.44" y2="142" stroke="#000" stroke-width="0.25"/><line x1="267.44" y1="122.72" x2="267.44" y2="142" stroke="#000" stroke-width="0.25"/><line x1="266.38" y1="123.78" x2="268.5" y2="121.66" stroke="#000" stroke-width="0.5"/><line x1="266.38" y1="143.06" x2="268.5" y2="140.94" stroke="#000" stroke-width="0.5"/><text x="266.44" y="132.36" font-size="2.5" text-anchor="middle" transform="rotate(-90 266.44 132.36)" fill="#000">482</text></g><text x="297.76" y="24" font-size="3.5" text-anchor="middle" font-weight="700" text-decoration="underline" fill="#000">Разрез 1-1</text><g data-el="section"><rect x="285.76" y="34.8" width="4" height="110.4" fill="url(#fm-wall)" stroke="#000" stroke-width="0.5"/><rect x="289.76" y="142" width="54.4" height="3.2" fill="url(#fm-wall)" stroke="#000" stroke-width="0.5"/><rect x="289.76" y="34.8" width="54.4" height="3.2" fill="url(#fm-wall)" stroke="#000" stroke-width="0.5"/><rect x="344.16" y="34.8" width="4" height="110.4" fill="url(#fm-wall)" stroke="#000" stroke-width="0.5"/><rect x="289.76" y="46" width="16" height="92.8" fill="#f7f4ef" stroke="#000" stroke-width="0.25"/><rect x="289.76" y="46.64" width="0.16" height="91.52" fill="#8d8378" stroke="#000" stroke-width="0.25"/><rect x="289.76" y="138.16" width="16" height="0.64" fill="#8d8378" stroke="#000" stroke-width="0.25"/><rect x="289.76" y="46" width="16" height="0.64" fill="#8d8378" stroke="#000" stroke-width="0.25"/><rect x="305.12" y="138.8" width="0.64" height="3.2" fill="#8d8378" stroke="#000" stroke-width="0.25"/><rect x="291.52" y="138.8" width="0.64" height="3.2" fill="#8d8378" stroke="#000" stroke-width="0.25"/><rect x="289.92" y="63.6" width="15.04" height="0.64" fill="#8d8378" stroke="#000" stroke-width="0.25"/><circle cx="297.76" cy="66" r="0.6" fill="#fff" stroke="#000" stroke-width="0.35"/><path d="M 290.24 69.2 L 297.76 66.4 L 305.28 69.2" fill="none" stroke="#000" stroke-width="0.18" stroke-dasharray="1.5 1"/><circle cx="297.76" cy="102.16" r="0.6" fill="#fff" stroke="#000" stroke-width="0.35"/><path d="M 290.24 105.36 L 297.76 102.56 L 305.28 105.36" fill="none" stroke="#000" stroke-width="0.18" stroke-dasharray="1.5 1"/><path d="M 305.76 46 A 97.32 97.32 0 0 0 286.84 44.72" fill="none" stroke="#000" stroke-width="0.25" stroke-dasharray="3 1 0.6 1"/><rect x="290.36" y="41.23" width="8.29" height="2.63" fill="#fff" stroke="none"/><text x="290.96" y="43.28" font-size="2.5" fill="#000">R 2433</text></g><g data-el="dims"><line x1="289.76" y1="143" x2="289.76" y2="151" stroke="#000" stroke-width="0.25"/><line x1="305.76" y1="143" x2="305.76" y2="151" stroke="#000" stroke-width="0.25"/><line x1="289.76" y1="149" x2="305.76" y2="149" stroke="#000" stroke-width="0.25"/><line x1="288.7" y1="150.06" x2="290.82" y2="147.94" stroke="#000" stroke-width="0.5"/><line x1="304.7" y1="150.06" x2="306.82" y2="147.94" stroke="#000" stroke-width="0.5"/><text x="297.76" y="148" font-size="2.5" text-anchor="middle" fill="#000">400</text><line x1="305.76" y1="143" x2="305.76" y2="151" stroke="#000" stroke-width="0.25"/><line x1="344.16" y1="143" x2="344.16" y2="151" stroke="#000" stroke-width="0.25"/><line x1="305.76" y1="149" x2="344.16" y2="149" stroke="#000" stroke-width="0.25"/><line x1="304.7" y1="150.06" x2="306.82" y2="147.94" stroke="#000" stroke-width="0.5"/><line x1="343.1" y1="150.06" x2="345.22" y2="147.94" stroke="#000" stroke-width="0.5"/><text x="324.96" y="148" font-size="2.5" text-anchor="middle" fill="#000">960</text><line x1="349.16" y1="38" x2="355.16" y2="38" stroke="#000" stroke-width="0.25"/><line x1="349.16" y1="46" x2="355.16" y2="46" stroke="#000" stroke-width="0.25"/><line x1="353.16" y1="38" x2="353.16" y2="46" stroke="#000" stroke-width="0.25"/><line x1="352.1" y1="39.06" x2="354.22" y2="36.94" stroke="#000" stroke-width="0.5"/><line x1="352.1" y1="47.06" x2="354.22" y2="44.94" stroke="#000" stroke-width="0.5"/><text x="352.16" y="42" font-size="2.5" text-anchor="middle" transform="rotate(-90 352.16 42)" fill="#000">200</text><line x1="349.16" y1="46" x2="355.16" y2="46" stroke="#000" stroke-width="0.25"/><line x1="349.16" y1="138.8" x2="355.16" y2="138.8" stroke="#000" stroke-width="0.25"/><line x1="353.16" y1="46" x2="353.16" y2="138.8" stroke="#000" stroke-width="0.25"/><line x1="352.1" y1="47.06" x2="354.22" y2="44.94" stroke="#000" stroke-width="0.5"/><line x1="352.1" y1="139.86" x2="354.22" y2="137.74" stroke="#000" stroke-width="0.5"/><text x="352.16" y="92.4" font-size="2.5" text-anchor="middle" transform="rotate(-90 352.16 92.4)" fill="#000">2320</text><line x1="349.16" y1="138.8" x2="355.16" y2="138.8" stroke="#000" stroke-width="0.25"/><line x1="349.16" y1="142" x2="355.16" y2="142" stroke="#000" stroke-width="0.25"/><line x1="353.16" y1="138.8" x2="353.16" y2="142" stroke="#000" stroke-width="0.25"/><line x1="352.1" y1="139.86" x2="354.22" y2="137.74" stroke="#000" stroke-width="0.5"/><line x1="352.1" y1="143.06" x2="354.22" y2="140.94" stroke="#000" stroke-width="0.5"/><text x="352.16" y="146" font-size="2.5" text-anchor="middle" transform="rotate(-90 352.16 146)" fill="#000">80</text></g><text x="381.08" y="24" font-size="3.5" text-anchor="middle" font-weight="700" text-decoration="underline" fill="#000">Разрез 2-2</text><g data-el="section"><rect x="369.08" y="34.8" width="4" height="110.4" fill="url(#fm-wall)" stroke="#000" stroke-width="0.5"/><rect x="373.08" y="142" width="22" height="3.2" fill="url(#fm-wall)" stroke="#000" stroke-width="0.5"/><rect x="373.08" y="34.8" width="22" height="3.2" fill="url(#fm-wall)" stroke="#000" stroke-width="0.5"/><rect x="373.08" y="46" width="16" height="92.8" fill="#f7f4ef" stroke="#000" stroke-width="0.25"/><rect x="373.08" y="46.64" width="0.16" height="91.52" fill="#8d8378" stroke="#000" stroke-width="0.25"/><rect x="373.08" y="138.16" width="16" height="0.64" fill="#8d8378" stroke="#000" stroke-width="0.25"/><rect x="373.08" y="46" width="16" height="0.64" fill="#8d8378" stroke="#000" stroke-width="0.25"/><rect x="388.44" y="138.8" width="0.64" height="3.2" fill="#8d8378" stroke="#000" stroke-width="0.25"/><rect x="374.84" y="138.8" width="0.64" height="3.2" fill="#8d8378" stroke="#000" stroke-width="0.25"/><rect x="373.24" y="63.6" width="15.04" height="0.64" fill="#8d8378" stroke="#000" stroke-width="0.25"/><rect x="373.24" y="122.72" width="15.04" height="0.64" fill="#8d8378" stroke="#000" stroke-width="0.25"/><rect x="373.24" y="108.12" width="15.04" height="0.64" fill="#8d8378" stroke="#000" stroke-width="0.25"/><rect x="373.24" y="93.48" width="15.04" height="0.64" fill="#8d8378" stroke="#000" stroke-width="0.25"/><rect x="373.24" y="78.88" width="15.04" height="0.64" fill="#8d8378" stroke="#000" stroke-width="0.25"/><path d="M 389.08 46 A 97.32 97.32 0 0 0 370.16 44.72" fill="none" stroke="#000" stroke-width="0.25" stroke-dasharray="3 1 0.6 1"/><rect x="373.68" y="41.23" width="8.29" height="2.63" fill="#fff" stroke="none"/><text x="374.28" y="43.28" font-size="2.5" fill="#000">R 2433</text></g><g data-el="dims"><line x1="373.08" y1="143" x2="373.08" y2="151" stroke="#000" stroke-width="0.25"/><line x1="389.08" y1="143" x2="389.08" y2="151" stroke="#000" stroke-width="0.25"/><line x1="373.08" y1="149" x2="389.08" y2="149" stroke="#000" stroke-width="0.25"/><line x1="372.02" y1="150.06" x2="374.14" y2="147.94" stroke="#000" stroke-width="0.5"/><line x1="388.02" y1="150.06" x2="390.14" y2="147.94" stroke="#000" stroke-width="0.5"/><text x="381.08" y="148" font-size="2.5" text-anchor="middle" fill="#000">400</text><line x1="396.08" y1="38" x2="402.08" y2="38" stroke="#000" stroke-width="0.25"/><line x1="396.08" y1="46" x2="402.08" y2="46" stroke="#000" stroke-width="0.25"/><line x1="400.08" y1="38" x2="400.08" y2="46" stroke="#000" stroke-width="0.25"/><line x1="399.02" y1="39.06" x2="401.14" y2="36.94" stroke="#000" stroke-width="0.5"/><line x1="399.02" y1="47.06" x2="401.14" y2="44.94" stroke="#000" stroke-width="0.5"/><text x="399.08" y="42" font-size="2.5" text-anchor="middle" transform="rotate(-90 399.08 42)" fill="#000">200</text><line x1="396.08" y1="46" x2="402.08" y2="46" stroke="#000" stroke-width="0.25"/><line x1="396.08" y1="138.8" x2="402.08" y2="138.8" stroke="#000" stroke-width="0.25"/><line x1="400.08" y1="46" x2="400.08" y2="138.8" stroke="#000" stroke-width="0.25"/><line x1="399.02" y1="47.06" x2="401.14" y2="44.94" stroke="#000" stroke-width="0.5"/><line x1="399.02" y1="139.86" x2="401.14" y2="137.74" stroke="#000" stroke-width="0.5"/><text x="399.08" y="92.4" font-size="2.5" text-anchor="middle" transform="rotate(-90 399.08 92.4)" fill="#000">2320</text><line x1="396.08" y1="138.8" x2="402.08" y2="138.8" stroke="#000" stroke-width="0.25"/><line x1="396.08" y1="142" x2="402.08" y2="142" stroke="#000" stroke-width="0.25"/><line x1="400.08" y1="138.8" x2="400.08" y2="142" stroke="#000" stroke-width="0.25"/><line x1="399.02" y1="139.86" x2="401.14" y2="137.74" stroke="#000" stroke-width="0.5"/><line x1="399.02" y1="143.06" x2="401.14" y2="140.94" stroke="#000" stroke-width="0.5"/><text x="399.08" y="146" font-size="2.5" text-anchor="middle" transform="rotate(-90 399.08 146)" fill="#000">80</text></g><g data-el="section-mark"><path d="M 187.99 31 L 187.99 36" fill="none" stroke="#000" stroke-width="0.7"/><path d="M 187.99 31 L 184.79 31" fill="none" stroke="#000" stroke-width="0.25"/><path d="M 184.19 31 L 185.79 30.4 L 185.79 31.6 Z" fill="#000"/><text x="189.19" y="32.2" font-size="3.5" font-weight="700" fill="#000">1</text></g><g data-el="section-mark"><path d="M 216.84 31 L 216.84 36" fill="none" stroke="#000" stroke-width="0.7"/><path d="M 216.84 31 L 213.64 31" fill="none" stroke="#000" stroke-width="0.25"/><path d="M 213.04 31 L 214.64 30.4 L 214.64 31.6 Z" fill="#000"/><text x="218.04" y="32.2" font-size="3.5" font-weight="700" fill="#000">2</text></g><g data-el="notes"><text x="25" y="166" font-size="3.5" font-weight="700" fill="#000">Примечания</text><text x="25" y="171" font-size="2.5" fill="#000">1. Размеры — в мм по чистовой отделке; изделие 2180×400×2400 (Ш×Г×В). Перед раскроем — контрольный замер цеха после чистовой отделки стен, пола и потолка.</text><text x="25" y="174.6" font-size="2.5" fill="#000">2. Корпус — ЛДСП 16 мм, задняя стенка ХДФ 4 мм в паз, цоколь 80 мм на регулируемых опорах; открытая система без фасадов, ящики с фасадами.</text><text x="25" y="178.2" font-size="2.5" fill="#000">3. Кромка: скрытые торцы 0,4 мм, видимые 2 мм (ПВХ/АБС).</text><text x="25" y="181.8" font-size="2.5" fill="#000">4. Номинальные зазоры: между фасадами ящиков 3 мм, фасад ящика — стойка 2 мм.</text><text x="25" y="185.4" font-size="2.5" fill="#000">5. Ящики — направляющие полного выдвижения NL 350 (внутренняя глубина 396 мм ≥ NL + 3); присадка по 32-й системе — выполняет цех.</text><text x="25" y="189" font-size="2.5" fill="#000">6. Зазор до потолка 200 мм.</text><text x="25" y="192.6" font-size="2.5" fill="#000">7. Подъём корпуса: диагональ боковины √(2400² + 400²) = 2433 мм &lt; 2600 мм до потолка — корпус собирается лёжа и поднимается поворотом.</text><text x="25" y="196.2" font-size="2.5" fill="#000">8. Крепление к стене от опрокидывания: крепление к стене, 4 точки; основание стены и шаг анкеров — монтажная схема шкафов.</text><text x="25" y="199.8" font-size="2.5" fill="#000">9. Проход перед изделием 960 мм показан на разрезе 1-1.</text></g><g data-el="legend"><text x="234" y="166" font-size="3.5" font-weight="700" fill="#000">Условные обозначения</text><rect x="234" y="171.6" width="10.5" height="4.6" fill="#ece7df" stroke="#000" stroke-width="0.25"/><text x="248" y="174.4" font-size="2.5" fill="#000">корпус и полки ЛДСП (вид)</text><rect x="234" y="178.1" width="10.5" height="4.6" fill="#f7f4ef" stroke="#000" stroke-width="0.25"/><text x="248" y="180.9" font-size="2.5" fill="#000">задняя стенка ХДФ</text><rect x="234" y="184.6" width="10.5" height="4.6" fill="#8d8378" stroke="#000" stroke-width="0.25"/><text x="248" y="187.4" font-size="2.5" fill="#000">деталь в разрезе</text></g><g data-el="legend"><text x="324" y="166" font-size="3.5" font-weight="700" fill="#000"></text><path d="M 324.8 173.9 L 333.7 173.9" fill="none" stroke="#000" stroke-width="0.35"/><circle cx="324.8" cy="173.9" r="0.8" fill="#fff" stroke="#000" stroke-width="0.25"/><circle cx="333.7" cy="173.9" r="0.8" fill="#fff" stroke="#000" stroke-width="0.25"/><text x="338" y="174.4" font-size="2.5" fill="#000">штанга для плечиков (на разрезе — плечики 450 мм)</text><path d="M 324.5 183.1 A 9 9 0 0 1 334.3 178.7" fill="none" stroke="#000" stroke-width="0.18" stroke-dasharray="3 1 0.6 1"/><text x="338" y="180.9" font-size="2.5" fill="#000">траектория угла корпуса при подъёме в проектное положение</text></g><g data-el="scale-bar"><line x1="25" y1="287" x2="65" y2="287" stroke="#000" stroke-width="0.5"/><line x1="25" y1="285.5" x2="25" y2="288.5" stroke="#000" stroke-width="0.25"/><line x1="65" y1="285.5" x2="65" y2="288.5" stroke="#000" stroke-width="0.25"/><text x="67" y="288" font-size="2.5" fill="#000">1000 мм · печать 1:1</text></g><g data-el="stamp"><rect x="230" y="237" width="185" height="55" fill="none" stroke="#000" stroke-width="0.7"/><line x1="230" y1="242" x2="295" y2="242" stroke="#000" stroke-width="0.25"/><line x1="230" y1="247" x2="295" y2="247" stroke="#000" stroke-width="0.25"/><line x1="230" y1="252" x2="295" y2="252" stroke="#000" stroke-width="0.25"/><line x1="230" y1="257" x2="295" y2="257" stroke="#000" stroke-width="0.5"/><line x1="230" y1="262" x2="295" y2="262" stroke="#000" stroke-width="0.5"/><line x1="230" y1="267" x2="295" y2="267" stroke="#000" stroke-width="0.25"/><line x1="230" y1="272" x2="295" y2="272" stroke="#000" stroke-width="0.25"/><line x1="230" y1="277" x2="295" y2="277" stroke="#000" stroke-width="0.25"/><line x1="230" y1="282" x2="295" y2="282" stroke="#000" stroke-width="0.25"/><line x1="230" y1="287" x2="295" y2="287" stroke="#000" stroke-width="0.25"/><line x1="240" y1="237" x2="240" y2="262" stroke="#000" stroke-width="0.5"/><line x1="250" y1="237" x2="250" y2="262" stroke="#000" stroke-width="0.5"/><line x1="260" y1="237" x2="260" y2="262" stroke="#000" stroke-width="0.5"/><line x1="270" y1="237" x2="270" y2="262" stroke="#000" stroke-width="0.5"/><line x1="285" y1="237" x2="285" y2="262" stroke="#000" stroke-width="0.5"/><line x1="250" y1="262" x2="250" y2="292" stroke="#000" stroke-width="0.5"/><line x1="270" y1="262" x2="270" y2="292" stroke="#000" stroke-width="0.5"/><line x1="285" y1="262" x2="285" y2="292" stroke="#000" stroke-width="0.5"/><line x1="295" y1="237" x2="295" y2="292" stroke="#000" stroke-width="0.7"/><text x="235" y="260.8" font-size="2.5" text-anchor="middle" fill="#000">Изм.</text><text x="245" y="260.8" font-size="2.5" text-anchor="middle" fill="#000">Кол.уч</text><text x="255" y="260.8" font-size="2.5" text-anchor="middle" fill="#000">Лист</text><text x="265" y="260.8" font-size="2.5" text-anchor="middle" fill="#000">№ док.</text><text x="277.5" y="260.8" font-size="2.5" text-anchor="middle" fill="#000">Подп.</text><text x="290" y="260.8" font-size="2.5" text-anchor="middle" fill="#000">Дата</text><text x="231" y="265.8" font-size="2.5" fill="#000">Разраб.</text><text x="251" y="265.8" font-size="2.5" fill="#000">Кырлан А.С.</text><text x="290" y="265.8" font-size="2.5" text-anchor="middle" textLength="8.6" lengthAdjust="spacingAndGlyphs" fill="#000">23.09.26</text><text x="231" y="270.8" font-size="2.5" fill="#000">Пров.</text><text x="231" y="275.8" font-size="2.5" fill="#000">ГИП</text><text x="231" y="285.8" font-size="2.5" fill="#000">Н. контр.</text><text x="231" y="290.8" font-size="2.5" fill="#000">Утв.</text><text x="355" y="244.3" font-size="5" text-anchor="middle" font-weight="700" fill="#000">ГД-2026-004-АИ</text><line x1="295" y1="247" x2="415" y2="247" stroke="#000" stroke-width="0.7"/><text x="297" y="253.6" font-size="3.5" fill="#000">Четырёхкомнатная квартира</text><text x="297" y="259.2" font-size="2.5" fill="#000">Общая площадь 102,1 м²</text><line x1="295" y1="262" x2="415" y2="262" stroke="#000" stroke-width="0.7"/><text x="297" y="268.7" font-size="2.5" fill="#000">Дизайн-проект интерьера четырёхкомнатной</text><text x="297" y="272.5" font-size="2.5" fill="#000">квартиры</text><line x1="365" y1="262" x2="365" y2="292" stroke="#000" stroke-width="0.7"/><line x1="365" y1="267" x2="415" y2="267" stroke="#000" stroke-width="0.25"/><line x1="380" y1="262" x2="380" y2="277" stroke="#000" stroke-width="0.5"/><line x1="395" y1="262" x2="395" y2="277" stroke="#000" stroke-width="0.5"/><text x="372.5" y="265.8" font-size="2.5" text-anchor="middle" fill="#000">Стадия</text><text x="387.5" y="265.8" font-size="2.5" text-anchor="middle" fill="#000">Лист</text><text x="405" y="265.8" font-size="2.5" text-anchor="middle" fill="#000">Листов</text><text x="372.5" y="273.8" font-size="3.5" text-anchor="middle" fill="#000">РП</text><text x="387.5" y="273.8" font-size="3.5" text-anchor="middle" fill="#000">50</text><text x="405" y="273.8" font-size="3.5" text-anchor="middle" fill="#000">101</text><line x1="295" y1="277" x2="415" y2="277" stroke="#000" stroke-width="0.7"/><text x="330" y="282.2" font-size="3.5" text-anchor="middle" font-weight="700" fill="#000">Система хранения М9</text><text x="330" y="290.2" font-size="2.5" text-anchor="middle" fill="#000">М 1:25</text><text x="390" y="285.8" font-size="2.5" text-anchor="middle" font-weight="700" fill="#000">Кырлан Александр Сергеевич</text></g></svg>