<svg xmlns="http://www.w3.org/2000/svg" width="1587" height="1123" viewBox="0 0 1587 1123" font-family='Inter, "Helvetica Neue", Arial, sans-serif'><rect width="1587" height="1123" fill="#FFFFFF"/><rect x="76" y="19" width="1492" height="1085" fill="none" stroke="#1C1C1C" stroke-width="1.6"/><g transform="translate(86 196.85046153846153) scale(0.9449)"><defs><pattern id="rh81" width="7" height="7" patternUnits="userSpaceOnUse" patternTransform="rotate(45)"><rect width="7" height="7" fill="#9A9A9A"/><line x1="0" y1="0" x2="0" y2="7" stroke="#6E6E6E" stroke-width="2"/></pattern></defs><rect x="78" y="78" width="280" height="248" fill="#9A9A9A" stroke="#1C1C1C" stroke-width="1.5"/><rect x="90" y="90" width="256" height="224" fill="#FFFFFF" stroke="#1C1C1C" stroke-width="1.2"/><rect x="106" y="314" width="72" height="12" fill="#FFFFFF" stroke="#1C1C1C" stroke-width="0.9"/><line x1="106" y1="314" x2="106" y2="242" stroke="#2A2A2A" stroke-width="1.6"/><path d="M 178 314 A 72 72 0 0 0 106 242" fill="none" stroke="#2A2A2A" stroke-width="0.7"/><rect x="266" y="90" width="72" height="8" fill="#C29A5B22" stroke="#C29A5B" stroke-width="1" stroke-dasharray="4 3"/><rect x="106" y="98" width="224" height="80" fill="none" stroke="#2E9E4F" stroke-width="1.1"/><line x1="126.36363636363636" y1="98" x2="126.36363636363636" y2="178" stroke="#2E9E4F" stroke-width="0.7"/><line x1="146.72727272727272" y1="98" x2="146.72727272727272" y2="178" stroke="#2E9E4F" stroke-width="0.7"/><line x1="167.0909090909091" y1="98" x2="167.0909090909091" y2="178" stroke="#2E9E4F" stroke-width="0.7"/><line x1="187.45454545454544" y1="98" x2="187.45454545454544" y2="178" stroke="#2E9E4F" stroke-width="0.7"/><line x1="207.8181818181818" y1="98" x2="207.8181818181818" y2="178" stroke="#2E9E4F" stroke-width="0.7"/><line x1="228.1818181818182" y1="98" x2="228.1818181818182" y2="178" stroke="#2E9E4F" stroke-width="0.7"/><line x1="248.54545454545453" y1="98" x2="248.54545454545453" y2="178" stroke="#2E9E4F" stroke-width="0.7"/><line x1="268.9090909090909" y1="98" x2="268.9090909090909" y2="178" stroke="#2E9E4F" stroke-width="0.7"/><line x1="289.27272727272725" y1="98" x2="289.27272727272725" y2="178" stroke="#2E9E4F" stroke-width="0.7"/><line x1="309.6363636363636" y1="98" x2="309.6363636363636" y2="178" stroke="#2E9E4F" stroke-width="0.7"/><line x1="322" y1="138" x2="114" y2="138" stroke="#2A2A2A" stroke-width="1.2"/><path d="M 114 138 l 8 -4 M 114 138 l 8 4" fill="none" stroke="#2A2A2A" stroke-width="1.2"/><circle cx="322" cy="138" r="2.4" fill="#2A2A2A"/><rect x="180.2" y="132" width="75.60000000000001" height="12" fill="#FFFFFFD9" rx="2"/><text x="218" y="141" font-size="9" fill="#1C1C1C" text-anchor="middle">Лестница вниз</text><text x="78" y="44" font-size="16" font-weight="700" fill="#2E2A26">Холл второго этажа · 9 м²</text><text x="78" y="62" font-size="11" fill="#7A756D">План с расстановкой мебели · стиль «Современный» · h потолка 2900 мм</text><g stroke="#2A2A2A" stroke-width="0.8" fill="none"><line x1="90" y1="348" x2="346" y2="348"/><line x1="90" y1="343" x2="90" y2="353"/><line x1="346" y1="343" x2="346" y2="353"/><line x1="87" y1="351" x2="93" y2="345"/><line x1="343" y1="351" x2="349" y2="345"/></g>
<text x="218" y="343" font-size="10.5" fill="#2A2A2A" text-anchor="middle">3200</text><g stroke="#2A2A2A" stroke-width="0.8" fill="none"><line x1="380" y1="90" x2="380" y2="314"/><line x1="375" y1="90" x2="385" y2="90"/><line x1="375" y1="314" x2="385" y2="314"/><line x1="377" y1="93" x2="383" y2="87"/><line x1="377" y1="317" x2="383" y2="311"/></g>
<text x="386" y="202" font-size="10.5" fill="#2A2A2A" transform="rotate(-90 386 202)" text-anchor="middle">2800</text></g><g stroke="#1C1C1C" stroke-width="1" fill="none"><rect x="868" y="954" width="700" height="150"/>
<line x1="868" y1="1017" x2="1568" y2="1017"/><line x1="1036" y1="954" x2="1036" y2="1017"/>
<line x1="1232" y1="1017" x2="1232" y2="1104"/>
<line x1="1309" y1="1017" x2="1309" y2="1104"/><line x1="1410.5" y1="1017" x2="1410.5" y2="1104"/><line x1="1487.5" y1="1017" x2="1487.5" y2="1104"/></g><text x="875" y="967" font-size="8.5" fill="#7A756D">Студия</text><text x="875" y="984" font-size="15" font-weight="700" fill="#1C1C1C">LINEA</text><text x="875" y="997" font-size="8.5" fill="#7A756D">Дизайн интерьера</text><text x="1043" y="967" font-size="8.5" fill="#7A756D">Объект</text><text x="1043" y="984" font-size="12" font-weight="600" fill="#1C1C1C">КП «Сосновый бор», Московская обл.</text><text x="1043" y="997" font-size="8.5" fill="#7A756D">дом · 120 м² · стиль «Современный»</text><text x="875" y="1030" font-size="8.5" fill="#7A756D">Наименование листа</text><text x="875" y="1047" font-size="12.5" font-weight="600" fill="#1C1C1C">План. Холл второго этажа</text><text x="1239" y="1030" font-size="8.5" fill="#7A756D">Стадия</text><text x="1239" y="1047" font-size="12" font-weight="600" fill="#1C1C1C">РП</text><text x="1316" y="1030" font-size="8.5" fill="#7A756D">Масштаб</text><text x="1316" y="1047" font-size="12" font-weight="600" fill="#1C1C1C">М 1:50</text><text x="1417.5" y="1030" font-size="8.5" fill="#7A756D">Лист</text><text x="1417.5" y="1047" font-size="12" font-weight="600" fill="#1C1C1C">81</text><text x="1494.5" y="1030" font-size="8.5" fill="#7A756D">Листов</text><text x="1494.5" y="1047" font-size="12" font-weight="600" fill="#1C1C1C">159</text><text x="1561" y="1098" font-size="8" fill="#8A8478" text-anchor="end">03.08.2026</text><g stroke="#1C1C1C" stroke-width="1"><line x1="90" y1="1082" x2="165.59199999999998" y2="1082"/><line x1="90" y1="1077" x2="90" y2="1087"/><line x1="165.59199999999998" y1="1077" x2="165.59199999999998" y2="1087"/></g><text x="90" y="1072" font-size="9" fill="#57514A">контроль: 1000 мм · печать 1:1, без подгонки под лист</text></svg>