<svg xmlns="http://www.w3.org/2000/svg" width="1587" height="1123" viewBox="0 0 1587 1123" font-family='Inter, "Helvetica Neue", Arial, sans-serif' data-sheet="sockets" data-scale="1:100"><rect width="1587" height="1123" fill="#FFFFFF"/><rect x="76" y="19" width="1492" height="1085" fill="none" stroke="#1C1C1C" stroke-width="1.6"/><g transform="translate(593.1068 224.5388) scale(0.4724)"><defs><pattern id="wh7" width="7" height="7" patternUnits="userSpaceOnUse" patternTransform="rotate(45)"><rect width="7" height="7" fill="#DFDFDF"/><line x1="0" y1="0" x2="0" y2="7" stroke="#C4C4C4" stroke-width="2.70"/></pattern></defs><rect x="70" y="74" width="572" height="888" fill="url(#wh7)" stroke="#9A9A9A" stroke-width="1.44"/><rect x="86" y="90" width="540" height="856" fill="#DFDFDF"/><rect x="86" y="754" width="256" height="192" fill="#FFFFFF" stroke="#9A9A9A" stroke-width="1.44"/><rect x="86" y="90" width="512" height="400" fill="#FFFFFF" stroke="#9A9A9A" stroke-width="1.44"/><rect x="86" y="502" width="272" height="240" fill="#FFFFFF" stroke="#9A9A9A" stroke-width="1.44"/><rect x="354" y="754" width="176" height="144" fill="#FFFFFF" stroke="#9A9A9A" stroke-width="1.44"/><rect x="370" y="502" width="256" height="224" fill="#FFFFFF" stroke="#9A9A9A" stroke-width="1.44"/><rect x="102" y="942.8" width="72" height="25.6" fill="#FFFFFF"/><line x1="102" y1="946" x2="102" y2="874" stroke="#2A2A2A" stroke-width="1.89"/><path d="M 174 946 A 72 72 0 0 0 102 874" fill="none" stroke="#2A2A2A" stroke-width="1.44"/><rect x="102" y="486.8" width="72" height="25.6" fill="#FFFFFF"/><line x1="102" y1="490" x2="102" y2="418" stroke="#2A2A2A" stroke-width="1.89"/><path d="M 174 490 A 72 72 0 0 0 102 418" fill="none" stroke="#2A2A2A" stroke-width="1.44"/><rect x="102" y="738.8" width="72" height="25.6" fill="#FFFFFF"/><line x1="102" y1="742" x2="102" y2="670" stroke="#2A2A2A" stroke-width="1.89"/><path d="M 174 742 A 72 72 0 0 0 102 670" fill="none" stroke="#2A2A2A" stroke-width="1.44"/><rect x="370" y="894.8" width="72" height="25.6" fill="#FFFFFF"/><line x1="370" y1="898" x2="370" y2="826" stroke="#2A2A2A" stroke-width="1.89"/><path d="M 442 898 A 72 72 0 0 0 370 826" fill="none" stroke="#2A2A2A" stroke-width="1.44"/><rect x="386" y="722.8" width="72" height="25.6" fill="#FFFFFF"/><line x1="386" y1="726" x2="386" y2="654" stroke="#2A2A2A" stroke-width="1.89"/><path d="M 458 726 A 72 72 0 0 0 386 654" fill="none" stroke="#2A2A2A" stroke-width="1.44"/><rect x="282" y="74" width="120" height="16" fill="#FFFFFF" stroke="#1C1C1C" stroke-width="1.44"/><line x1="282" y1="79.8" x2="402" y2="79.8" stroke="#7FB2C8" stroke-width="2.16"/><line x1="282" y1="84.2" x2="402" y2="84.2" stroke="#1C1C1C" stroke-width="1.44"/><rect x="70" y="578" width="16" height="120" fill="#FFFFFF" stroke="#1C1C1C" stroke-width="1.44"/><line x1="75.8" y1="578" x2="75.8" y2="698" stroke="#7FB2C8" stroke-width="2.16"/><line x1="80.2" y1="578" x2="80.2" y2="698" stroke="#1C1C1C" stroke-width="1.44"/><rect x="94" y="760.4" width="144" height="48" fill="none" stroke="#C9C9C9" stroke-width="1.44" rx="1.5"/><rect x="270" y="760.4" width="64" height="32" fill="none" stroke="#C9C9C9" stroke-width="1.44" rx="1.5"/><rect x="94" y="98" width="496" height="48" fill="none" stroke="#C9C9C9" stroke-width="1.44" rx="1.5"/><rect x="342" y="162" width="168" height="232" fill="none" stroke="#C9C9C9" stroke-width="1.44" rx="1.5"/><rect x="158" y="178" width="120" height="72" fill="none" stroke="#C9C9C9" stroke-width="1.44" rx="1.5"/><rect x="514" y="218" width="76" height="192" fill="none" stroke="#C9C9C9" stroke-width="1.44" rx="1.5"/><rect x="426" y="250" width="64" height="64" fill="none" stroke="#C9C9C9" stroke-width="1.44" rx="1.5"/><rect x="94" y="242" width="32" height="144" fill="none" stroke="#C9C9C9" stroke-width="1.44" rx="1.5"/><rect x="166" y="510" width="112" height="56" fill="none" stroke="#C9C9C9" stroke-width="1.44" rx="1.5"/><rect x="194" y="570" width="56" height="56" fill="none" stroke="#C9C9C9" stroke-width="1.44" rx="1.5"/><rect x="322" y="614" width="28" height="120" fill="none" stroke="#C9C9C9" stroke-width="1.44" rx="1.5"/><rect x="360.4" y="760.4" width="136" height="56" fill="none" stroke="#C9C9C9" stroke-width="1.44" rx="1.5"/><rect x="491.6" y="839.6" width="32" height="52" fill="none" stroke="#C9C9C9" stroke-width="1.44" rx="1.5"/><rect x="386" y="510" width="224" height="80" fill="none" stroke="#C9C9C9" stroke-width="1.44" rx="1.5"/><g stroke="#1F8A4C" stroke-width="1.62"><circle cx="202" cy="934" r="3.4" fill="#1F8A4C"/><line x1="202" y1="930.6" x2="208" y2="925"/></g><text x="209" y="929" font-size="20.00" fill="#2A2A2A">15/90</text><g stroke="#1F8A4C" stroke-width="1.62" fill="none"><path d="M 313 766 a 5 5 0 0 1 10 0" fill="#FFF"/><line x1="312" y1="766" x2="324" y2="766"/><line x1="318" y1="766" x2="318" y2="770"/></g><text x="325" y="761" font-size="20.00" fill="#2A2A2A">15/30</text><g stroke="#1F8A4C" stroke-width="1.62" fill="none"><path d="M 253 811.6 a 5 5 0 0 1 10 0" fill="#1F8A4C"/><line x1="252" y1="811.6" x2="264" y2="811.6"/><line x1="258" y1="811.6" x2="258" y2="815.6"/></g><text x="265" y="806.6" font-size="20.00" fill="#2A2A2A">72/90</text><g stroke="#1F8A4C" stroke-width="1.62"><circle cx="214" cy="850" r="3.4" fill="#1F8A4C"/><line x1="214" y1="846.6" x2="220" y2="841"/></g><text x="221" y="845" font-size="20.00" fill="#2A2A2A">120/180</text><g stroke="#1F8A4C" stroke-width="1.62"><circle cx="102" cy="930" r="3.4" fill="#1F8A4C"/><line x1="102" y1="926.6" x2="108" y2="921"/></g><text x="109" y="925" font-size="20.00" fill="#2A2A2A">20/180</text><g stroke="#1F8A4C" stroke-width="1.62"><circle cx="202" cy="478" r="3.4" fill="#1F8A4C"/><line x1="202" y1="474.6" x2="208" y2="469"/></g><text x="209" y="473" font-size="20.00" fill="#2A2A2A">15/90</text><g stroke="#1F8A4C" stroke-width="1.62" fill="none"><path d="M 142.4 102 a 5 5 0 0 1 10 0" fill="#FFF"/><line x1="141.4" y1="102" x2="153.4" y2="102"/><line x1="147.4" y1="102" x2="147.4" y2="106"/></g><text x="154.4" y="97" font-size="20.00" fill="#2A2A2A">15/15</text><g stroke="#1F8A4C" stroke-width="1.62" fill="none"><path d="M 337 150.8 a 5 5 0 0 1 10 0" fill="#1F8A4C"/><line x1="336" y1="150.8" x2="348" y2="150.8"/><line x1="342" y1="150.8" x2="342" y2="154.8"/></g><text x="349" y="145.8" font-size="20.00" fill="#2A2A2A">76/15</text><g stroke="#1F8A4C" stroke-width="1.62" fill="none"><path d="M 259.6 102 a 5 5 0 0 1 10 0" fill="#FFF"/><line x1="258.6" y1="102" x2="270.6" y2="102"/><line x1="264.6" y1="102" x2="264.6" y2="106"/></g><text x="271.6" y="97" font-size="20.00" fill="#2A2A2A">15/15</text><g stroke="#1F8A4C" stroke-width="1.62" fill="none"><path d="M 347.2 102 a 5 5 0 0 1 10 0" fill="#FFF"/><line x1="346.2" y1="102" x2="358.2" y2="102"/><line x1="352.2" y1="102" x2="352.2" y2="106"/></g><text x="359.2" y="97" font-size="20.00" fill="#2A2A2A">15/15</text><g stroke="#1F8A4C" stroke-width="1.62" fill="none"><path d="M 413.8 102 a 5 5 0 0 1 10 0" fill="#FFF"/><line x1="412.8" y1="102" x2="424.8" y2="102"/><line x1="418.8" y1="102" x2="418.8" y2="106"/></g><text x="425.8" y="97" font-size="20.00" fill="#2A2A2A">15/155</text><g stroke="#1F8A4C" stroke-width="1.62" fill="none"><path d="M 253.8 110.8 a 5 5 0 0 1 10 0" fill="#FFF"/><line x1="252.8" y1="110.8" x2="264.8" y2="110.8"/><line x1="258.8" y1="110.8" x2="258.8" y2="114.8"/></g><text x="265.8" y="105.8" font-size="20.00" fill="#2A2A2A">26/210</text><g stroke="#1F8A4C" stroke-width="1.62" fill="none"><path d="M 337 150.8 a 5 5 0 0 1 10 0" fill="#FFF"/><line x1="336" y1="150.8" x2="348" y2="150.8"/><line x1="342" y1="150.8" x2="342" y2="154.8"/></g><text x="349" y="145.8" font-size="20.00" fill="#2A2A2A">76/110</text><g stroke="#1F8A4C" stroke-width="1.62" fill="none"><path d="M 337 150.8 a 5 5 0 0 1 10 0" fill="#FFF"/><line x1="336" y1="150.8" x2="348" y2="150.8"/><line x1="342" y1="150.8" x2="342" y2="154.8"/></g><text x="349" y="145.8" font-size="20.00" fill="#2A2A2A">76/110</text><g stroke="#1F8A4C" stroke-width="1.62" fill="none"><path d="M 337 150.8 a 5 5 0 0 1 10 0" fill="#FFF"/><line x1="336" y1="150.8" x2="348" y2="150.8"/><line x1="342" y1="150.8" x2="342" y2="154.8"/></g><text x="349" y="145.8" font-size="20.00" fill="#2A2A2A">76/110</text><g stroke="#1F8A4C" stroke-width="1.62" fill="none"><path d="M 105 314 a 5 5 0 0 1 10 0" fill="#FFF"/><line x1="104" y1="314" x2="116" y2="314"/><line x1="110" y1="314" x2="110" y2="318"/></g><text x="118" y="321" font-size="20.00" font-weight="700" fill="#1F8A4C">it</text><text x="117" y="309" font-size="20.00" fill="#2A2A2A">30/130</text><g stroke="#1F8A4C" stroke-width="1.62" fill="none"><path d="M 581 250 a 5 5 0 0 1 10 0" fill="#FFF"/><line x1="580" y1="250" x2="592" y2="250"/><line x1="586" y1="250" x2="586" y2="254"/></g><text x="593" y="245" font-size="20.00" fill="#2A2A2A">15/30</text><g stroke="#1F8A4C" stroke-width="1.62" fill="none"><path d="M 213 254.8 a 5 5 0 0 1 10 0" fill="#FFF"/><line x1="212" y1="254.8" x2="224" y2="254.8"/><line x1="218" y1="254.8" x2="218" y2="258.8"/></g><text x="225" y="249.8" font-size="20.00" fill="#2A2A2A">165/30</text><g stroke="#1F8A4C" stroke-width="1.62"><circle cx="210" cy="478" r="3.4" fill="#1F8A4C"/><line x1="210" y1="474.6" x2="216" y2="469"/></g><text x="217" y="473" font-size="20.00" fill="#2A2A2A">15/180</text><g stroke="#1F8A4C" stroke-width="1.62"><circle cx="582" cy="474" r="3.4" fill="#1F8A4C"/><line x1="582" y1="470.6" x2="588" y2="465"/></g><text x="589" y="469" font-size="20.00" fill="#2A2A2A">20/15</text><g stroke="#1F8A4C" stroke-width="1.62"><circle cx="102" cy="106" r="3.4" fill="#1F8A4C"/><line x1="102" y1="102.6" x2="108" y2="97"/></g><text x="109" y="101" font-size="20.00" fill="#2A2A2A">20/180</text><g stroke="#1F8A4C" stroke-width="1.62"><circle cx="202" cy="730" r="3.4" fill="#1F8A4C"/><line x1="202" y1="726.6" x2="208" y2="721"/></g><text x="209" y="725" font-size="20.00" fill="#2A2A2A">15/90</text><g stroke="#1F8A4C" stroke-width="1.62" fill="none"><path d="M 121 514 a 5 5 0 0 1 10 0" fill="#FFF"/><line x1="120" y1="514" x2="132" y2="514"/><line x1="126" y1="514" x2="126" y2="518"/></g><text x="133" y="509" font-size="20.00" fill="#2A2A2A">15/30</text><g stroke="#1F8A4C" stroke-width="1.62"><circle cx="470" cy="886" r="3.4" fill="#1F8A4C"/><line x1="470" y1="882.6" x2="476" y2="877"/></g><text x="477" y="881" font-size="20.00" fill="#2A2A2A">15/90</text><g stroke="#1F8A4C" stroke-width="1.62" fill="none"><path d="M 493 886 a 5 5 0 0 1 10 0" fill="#1F8A4C"/><line x1="492" y1="886" x2="504" y2="886"/><line x1="498" y1="886" x2="498" y2="890"/></g><text x="506" y="893" font-size="20.00" font-weight="700" fill="#1F8A4C">it</text><text x="505" y="881" font-size="20.00" fill="#2A2A2A">15/110</text><g stroke="#1F8A4C" stroke-width="1.62" fill="none"><path d="M 513 786 a 5 5 0 0 1 10 0" fill="#1F8A4C"/><line x1="512" y1="786" x2="524" y2="786"/><line x1="518" y1="786" x2="518" y2="790"/></g><text x="525" y="781" font-size="20.00" fill="#2A2A2A">15/60</text><g stroke="#1F8A4C" stroke-width="1.62" fill="none"><path d="M 513 833.2 a 5 5 0 0 1 10 0" fill="#1F8A4C"/><line x1="512" y1="833.2" x2="524" y2="833.2"/><line x1="518" y1="833.2" x2="518" y2="837.2"/></g><text x="525" y="828.2" font-size="20.00" fill="#2A2A2A">15/60</text><g stroke="#1F8A4C" stroke-width="1.62"><circle cx="442" cy="770" r="3.4" fill="#1F8A4C"/><line x1="442" y1="766.6" x2="448" y2="761"/></g><text x="449" y="765" font-size="20.00" fill="#2A2A2A">20/180</text><g stroke="#1F8A4C" stroke-width="1.62"><circle cx="486" cy="714" r="3.4" fill="#1F8A4C"/><line x1="486" y1="710.6" x2="492" y2="705"/></g><text x="493" y="709" font-size="20.00" fill="#2A2A2A">15/90</text><g stroke="#1F8A4C" stroke-width="1.62" fill="none"><path d="M 597 514 a 5 5 0 0 1 10 0" fill="#FFF"/><line x1="596" y1="514" x2="608" y2="514"/><line x1="602" y1="514" x2="602" y2="518"/></g><text x="609" y="509" font-size="20.00" fill="#2A2A2A">15/30</text><g stroke="#1F8A4C" stroke-width="1.62" fill="none"><path d="M 377 569.2 a 5 5 0 0 1 10 0" fill="#1F8A4C"/><line x1="376" y1="569.2" x2="388" y2="569.2"/><line x1="382" y1="569.2" x2="382" y2="573.2"/></g><text x="389" y="564.2" font-size="20.00" fill="#2A2A2A">15/90</text><g stroke="#1F8A4C" stroke-width="1.62"><circle cx="498" cy="614" r="3.4" fill="#1F8A4C"/><line x1="498" y1="610.6" x2="504" y2="605"/></g><text x="505" y="609" font-size="20.00" fill="#2A2A2A">140/180</text><g stroke="#1F8A4C" stroke-width="1.62"><circle cx="386" cy="710" r="3.4" fill="#1F8A4C"/><line x1="386" y1="706.6" x2="392" y2="701"/></g><text x="393" y="705" font-size="20.00" fill="#2A2A2A">20/180</text><line x1="258" y1="811.6" x2="304" y2="789.6" stroke="#1C1C1C" stroke-width="1.44"/>
<rect x="304" y="781.6" width="130.8" height="16" fill="#FFF" stroke="#1C1C1C" stroke-width="1.44"/>
<text x="310" y="793.1" font-size="20.00" fill="#1C1C1C">стиральная машина IP44</text><line x1="518" y1="786" x2="466.4" y2="816" stroke="#1C1C1C" stroke-width="1.44"/>
<rect x="368" y="808" width="98.4" height="16" fill="#FFF" stroke="#1C1C1C" stroke-width="1.44"/>
<text x="374" y="819.5" font-size="20.00" fill="#1C1C1C">вывод полот.суш.</text><line x1="518" y1="833.2" x2="498.8" y2="811.2" stroke="#1C1C1C" stroke-width="1.44"/>
<rect x="368" y="803.2" width="130.8" height="16" fill="#FFF" stroke="#1C1C1C" stroke-width="1.44"/>
<text x="374" y="814.7" font-size="20.00" fill="#1C1C1C">полотенцесушитель IP44</text><line x1="382" y1="569.2" x2="362.8" y2="599.2" stroke="#1C1C1C" stroke-width="1.44"/>
<rect x="232" y="591.2" width="130.8" height="16" fill="#FFF" stroke="#1C1C1C" stroke-width="1.44"/>
<text x="238" y="602.7" font-size="20.00" fill="#1C1C1C">стиральная машина IP44</text><g data-el="room"></g><circle cx="214" cy="850" r="9" fill="#FFFFFFD9" stroke="#8A8478" stroke-width="1.44"/><text x="214" y="853.5" font-size="20.00" font-weight="700" text-anchor="middle" fill="#57514A">1</text><circle cx="342" cy="290" r="9" fill="#FFFFFFD9" stroke="#8A8478" stroke-width="1.44"/><text x="342" y="293.5" font-size="20.00" font-weight="700" text-anchor="middle" fill="#57514A">2</text><circle cx="222" cy="622" r="9" fill="#FFFFFFD9" stroke="#8A8478" stroke-width="1.44"/><text x="222" y="625.5" font-size="20.00" font-weight="700" text-anchor="middle" fill="#57514A">3</text><circle cx="442" cy="826" r="9" fill="#FFFFFFD9" stroke="#8A8478" stroke-width="1.44"/><text x="442" y="829.5" font-size="20.00" font-weight="700" text-anchor="middle" fill="#57514A">4</text><circle cx="498" cy="614" r="9" fill="#FFFFFFD9" stroke="#8A8478" stroke-width="1.44"/><text x="498" y="617.5" font-size="20.00" font-weight="700" text-anchor="middle" fill="#57514A">5</text><g data-el="legend"><rect x="718" y="74" width="268" height="130" fill="none" stroke="#8A8478" stroke-width="1.44"/><text x="728" y="92" font-size="20.00" font-weight="700" fill="#2E2A26">Условные обозначения</text><g stroke="#1F8A4C" stroke-width="1.62" fill="none"><path d="M 733 105 a 5 5 0 0 1 10 0" fill="#FFF"/><line x1="732" y1="105" x2="744" y2="105"/></g><text x="756" y="111" font-size="20.00" fill="#57514A">розетка штепсельная IP20–IP23 — 35 поз.</text><g stroke="#1F8A4C" stroke-width="1.62" fill="none"><path d="M 733 125 a 5 5 0 0 1 10 0" fill="#1F8A4C"/><line x1="732" y1="125" x2="744" y2="125"/></g><text x="756" y="131" font-size="20.00" fill="#57514A">розетка влагозащищённая IP44–IP55</text><g><text x="732" y="148" font-size="20.00" font-weight="700" fill="#1F8A4C">it</text><circle cx="744" cy="145" r="3" fill="#1F8A4C"/></g><text x="756" y="151" font-size="20.00" fill="#57514A">интернет / ТВ-розетка (слаботочная)</text><g stroke="#1F8A4C" stroke-width="1.62"><circle cx="737" cy="165" r="3.4" fill="#1F8A4C"/><line x1="737" y1="161.6" x2="743" y2="156"/></g><text x="756" y="171" font-size="20.00" fill="#57514A">выключатель — 12 поз.</text><rect x="730" y="180" width="16" height="11" fill="none" stroke="#C9C9C9" stroke-width="1.44"/><text x="756" y="191" font-size="20.00" fill="#57514A">мебель — подложка для привязки</text></g><rect x="718" y="220" width="268" height="149" fill="#FFF6F4" stroke="#B0483A" stroke-width="1.44"/><text x="728" y="237" font-size="20.00" font-weight="700" fill="#B0483A">Розетки в кухонной зоне</text><text x="728" y="252" font-size="20.00" fill="#2A2A2A">1. Холодильник</text><text x="728" y="265" font-size="20.00" fill="#2A2A2A">2. Посудомоечная машина</text><text x="728" y="278" font-size="20.00" fill="#2A2A2A">3. Варочная панель</text><text x="728" y="291" font-size="20.00" fill="#2A2A2A">4. Духовой шкаф</text><text x="728" y="304" font-size="20.00" fill="#2A2A2A">5. Вытяжка</text><text x="728" y="317" font-size="20.00" fill="#2A2A2A">6. СВЧ</text><text x="728" y="330" font-size="20.00" fill="#2A2A2A">7. Рабочая зона фартука</text><text x="728" y="345" font-size="20.00" fill="#B0483A">Итоговые размеры техники запросить у</text><text x="728" y="356" font-size="20.00" fill="#B0483A">заказчика до разводки.</text><rect x="718" y="383" width="268" height="62" fill="#FFF6F4" stroke="#B0483A" stroke-width="1.44"/><text x="728" y="399" font-size="20.00" font-weight="700" fill="#B0483A">Привязки L/H заданы:</text><text x="728" y="414" font-size="20.00" fill="#2A2A2A">— от чистого пола (высота)</text><text x="728" y="426" font-size="20.00" fill="#2A2A2A">— от угла или дверного проёма (расстояние)</text><text x="728" y="438" font-size="20.00" fill="#2A2A2A">— до центра блока розеток</text><g data-el="notes"></g><text x="70" y="1036" font-size="20.00" font-weight="700" fill="#2E2A26">Примечания:</text><text x="70" y="1050" font-size="20.00" fill="#57514A">1. Все размеры даны в сантиметрах, в формате L/H.</text><text x="70" y="1064" font-size="20.00" fill="#57514A">2. Размеры даны без учёта отделочного слоя.</text><text x="70" y="1078" font-size="20.00" fill="#57514A">3. * размеры уточнить после выбора мебели и техники.</text><text x="70" y="1092" font-size="20.00" fill="#57514A">4. ** размеры уточнить у прораба на объекте.</text><text x="70" y="1106" font-size="20.00" fill="#57514A">5. Санузлы: линии через УЗО 30 мА, механизмы IP44.</text><text x="70" y="1120" font-size="20.00" fill="#57514A">6. Электросеть прокладывать в гофрированной трубе ПВХ за подвесными потолками и в подготовке пола вдоль стен в зоне 150 мм от стен.</text><text x="70" y="22" font-size="22.95" font-weight="700" fill="#2E2A26">План розеток 220 В и выводов с привязками · 1 этаж</text><text x="70" y="40" font-size="20.00" fill="#7A756D">Привязки L/H: от угла или проёма / от чистого пола, мм</text></g><g data-el="stamp" stroke="#1C1C1C" stroke-width="1" fill="none"><rect x="868" y="954" width="700" height="150"/>
<line x1="868" y1="1017" x2="1568" y2="1017"/><line x1="1036" y1="954" x2="1036" y2="1017"/>
<line x1="1232" y1="1017" x2="1232" y2="1104"/>
<line x1="1309" y1="1017" x2="1309" y2="1104"/><line x1="1410.5" y1="1017" x2="1410.5" y2="1104"/><line x1="1487.5" y1="1017" x2="1487.5" y2="1104"/></g><text x="875" y="967" font-size="9.5" fill="#7A756D">Студия</text><text x="875" y="984" font-size="15" font-weight="700" fill="#1C1C1C">LINEA</text><text x="875" y="997" font-size="9.5" fill="#7A756D">Дизайн интерьера</text><text x="1043" y="967" font-size="9.5" fill="#7A756D">Объект</text><text x="1043" y="984" font-size="12" font-weight="600" fill="#1C1C1C">КП «Сосновый бор», Московская обл.</text><text x="1043" y="997" font-size="9.5" fill="#7A756D">дом · 120 м² · стиль «Современный»</text><text x="875" y="1030" font-size="9.5" fill="#7A756D">Наименование листа</text><text x="875" y="1047" font-size="11" font-weight="600" fill="#1C1C1C">План розеток 220 В и выводов с привязками</text><text x="875" y="1061" font-size="11" font-weight="600" fill="#1C1C1C">· 1 этаж</text><text x="1239" y="1030" font-size="9.5" fill="#7A756D">Стадия</text><text x="1239" y="1047" font-size="12" font-weight="600" fill="#1C1C1C">РП</text><text x="1316" y="1030" font-size="9.5" fill="#7A756D">Масштаб</text><text x="1316" y="1047" font-size="12" font-weight="600" fill="#1C1C1C">М 1:100</text><text x="1417.5" y="1030" font-size="9.5" fill="#7A756D">Лист</text><text x="1417.5" y="1047" font-size="12" font-weight="600" fill="#1C1C1C">7</text><text x="1494.5" y="1030" font-size="9.5" fill="#7A756D">Листов</text><text x="1494.5" y="1047" font-size="12" font-weight="600" fill="#1C1C1C">193</text><text x="1561" y="1098" font-size="9.5" fill="#8A8478" text-anchor="end">06.08.2026</text><g stroke="#1C1C1C" stroke-width="1"><line x1="90" y1="1082" x2="127.792" y2="1082"/><line x1="90" y1="1077" x2="90" y2="1087"/><line x1="127.792" y1="1077" x2="127.792" y2="1087"/></g><text x="90" y="1072" font-size="9.5" fill="#57514A">контроль: 1000 мм · печать 1:1, без подгонки под лист</text></svg>