<svg xmlns="http://www.w3.org/2000/svg" width="436" height="424" viewBox="0 0 436 424" font-family='Inter, "Helvetica Neue", Arial, sans-serif'>
<rect width="436" height="424" fill="#FAF9F6"/>
<rect x="78" y="78" width="200" height="168" fill="#2E2A26"/><rect x="90" y="90" width="176" height="144" fill="#C8A97A22"/><line x1="114" y1="90" x2="114" y2="234" stroke="#00000010" stroke-width="1"/><line x1="138" y1="90" x2="138" y2="234" stroke="#00000010" stroke-width="1"/><line x1="162" y1="90" x2="162" y2="234" stroke="#00000010" stroke-width="1"/><line x1="186" y1="90" x2="186" y2="234" stroke="#00000010" stroke-width="1"/><line x1="210" y1="90" x2="210" y2="234" stroke="#00000010" stroke-width="1"/><line x1="234" y1="90" x2="234" y2="234" stroke="#00000010" stroke-width="1"/><line x1="258" y1="90" x2="258" y2="234" stroke="#00000010" stroke-width="1"/><rect x="102" y="234" width="56" height="12" fill="#FAF9F6" stroke="#57514A" stroke-width="0.8"/><path d="M 102 178 A 56 56 0 0 1 158 234" fill="none" stroke="#8A8478" stroke-width="1" stroke-dasharray="3 3"/><line x1="102" y1="234" x2="102" y2="178" stroke="#57514A" stroke-width="1.4"/><rect x="114" y="90" width="96" height="8" fill="#C29A5B22" stroke="#C29A5B" stroke-width="1" stroke-dasharray="4 3"/><rect x="96.4" y="96.4" width="136" height="56" fill="#FFFFFFE0" stroke="#57514A" stroke-width="1.2" rx="2"/><text x="164.4" y="127.4" font-size="9" fill="#57514A" text-anchor="middle">Ванна 1700×700</text><rect x="178" y="175.6" width="32" height="52" fill="#FFFFFFE0" stroke="#57514A" stroke-width="1.2" rx="2"/><text x="194" y="204.6" font-size="9" fill="#57514A" text-anchor="middle">Унитаз</text><rect x="215.6" y="191.6" width="44" height="36" fill="#FFFFFFE0" stroke="#57514A" stroke-width="1.2" rx="2"/><text x="237.6" y="212.6" font-size="9" fill="#57514A" text-anchor="middle">Раковина</text><text x="78" y="44" font-size="16" font-weight="700" fill="#2E2A26">Санузел · 4 м²</text><text x="78" y="62" font-size="11" fill="#7A756D">План с расстановкой мебели и привязками проёмов · стиль «Джапанди» · h потолка 2700 мм</text><g stroke="#8A8478" stroke-width="1" fill="none"><line x1="90" y1="268" x2="102" y2="268"/><line x1="90" y1="263" x2="90" y2="273"/><line x1="102" y1="263" x2="102" y2="273"/><line x1="87" y1="271" x2="93" y2="265"/><line x1="99" y1="271" x2="105" y2="265"/></g>
<text x="96" y="263" font-size="11" fill="#4A453E" text-anchor="middle">150</text><g stroke="#8A8478" stroke-width="1" fill="none"><line x1="102" y1="268" x2="158" y2="268"/><line x1="102" y1="263" x2="102" y2="273"/><line x1="158" y1="263" x2="158" y2="273"/><line x1="99" y1="271" x2="105" y2="265"/><line x1="155" y1="271" x2="161" y2="265"/></g>
<text x="130" y="263" font-size="11" fill="#4A453E" text-anchor="middle">700</text><g stroke="#8A8478" stroke-width="1" fill="none"><line x1="158" y1="268" x2="266" y2="268"/><line x1="158" y1="263" x2="158" y2="273"/><line x1="266" y1="263" x2="266" y2="273"/><line x1="155" y1="271" x2="161" y2="265"/><line x1="263" y1="271" x2="269" y2="265"/></g>
<text x="212" y="263" font-size="11" fill="#4A453E" text-anchor="middle">1350</text><g stroke="#8A8478" stroke-width="1" fill="none"><line x1="90" y1="290" x2="266" y2="290"/><line x1="90" y1="285" x2="90" y2="295"/><line x1="266" y1="285" x2="266" y2="295"/><line x1="87" y1="293" x2="93" y2="287"/><line x1="263" y1="293" x2="269" y2="287"/></g>
<text x="178" y="285" font-size="11" fill="#4A453E" text-anchor="middle">2200</text><g stroke="#8A8478" stroke-width="1" fill="none"><line x1="300" y1="90" x2="300" y2="234"/><line x1="295" y1="90" x2="305" y2="90"/><line x1="295" y1="234" x2="305" y2="234"/><line x1="297" y1="93" x2="303" y2="87"/><line x1="297" y1="237" x2="303" y2="231"/></g>
<text x="306" y="162" font-size="11" fill="#4A453E" transform="rotate(-90 306 162)" text-anchor="middle">1800</text><g><rect x="78" y="354" width="240" height="44" fill="none" stroke="#2E2A26" stroke-width="1"/>
<text x="88" y="371" font-size="10.5" font-weight="700" fill="#2E2A26" letter-spacing="1">LINEA · План с размерами. Санузел</text>
<text x="88" y="387" font-size="9.5" fill="#7A756D">Лист 19 из 61 · М 1:50 · стадия РП · 01.08.2026</text></g>
</svg>