<svg xmlns="http://www.w3.org/2000/svg" width="420mm" height="297mm" viewBox="0 0 420 297" font-family="'GOST type A','ISOCPEUR','Arial Narrow',Arial,sans-serif" data-sheet="schedule" data-scale="б/м"><rect width="420" height="297" fill="#fff"/><rect x="20" y="5" width="395" height="287" fill="none" stroke="#000" stroke-width="0.7"/><text x="25" y="13.2" font-size="7" font-weight="700" fill="#000">Ведомости изделий, техники и фурнитуры</text><text x="25" y="17.8" font-size="2.5" fill="#333">встроенная мебель и кухонный гарнитур · размеры в мм</text><g data-el="schedule"><text x="25" y="25" font-size="3.5" font-weight="700" fill="#000">Ведомость изделий</text><rect x="25" y="27" width="203" height="68.8" fill="none" stroke="#000" stroke-width="0.5"/><line x1="25" y1="35" x2="228" y2="35" stroke="#000" stroke-width="0.5"/><text x="31.5" y="32.3" font-size="2.5" text-anchor="middle" fill="#000">Марка</text><line x1="38" y1="27" x2="38" y2="95.8" stroke="#000" stroke-width="0.25"/><text x="58" y="32.3" font-size="2.5" text-anchor="middle" fill="#000">Наименование</text><line x1="78" y1="27" x2="78" y2="95.8" stroke="#000" stroke-width="0.25"/><text x="83" y="32.3" font-size="2.5" text-anchor="middle" fill="#000">Пом.</text><line x1="88" y1="27" x2="88" y2="95.8" stroke="#000" stroke-width="0.25"/><text x="101" y="32.3" font-size="2.5" text-anchor="middle" fill="#000">Ш×Г×В, мм</text><line x1="114" y1="27" x2="114" y2="95.8" stroke="#000" stroke-width="0.25"/><text x="124" y="32.3" font-size="2.5" text-anchor="middle" fill="#000">Корпус</text><line x1="134" y1="27" x2="134" y2="95.8" stroke="#000" stroke-width="0.25"/><text x="164" y="32.3" font-size="2.5" text-anchor="middle" fill="#000">Фасад</text><line x1="194" y1="27" x2="194" y2="95.8" stroke="#000" stroke-width="0.25"/><text x="206" y="32.3" font-size="2.5" text-anchor="middle" textLength="19.77" lengthAdjust="spacingAndGlyphs" fill="#000">Кромка, мм скр./вид.</text><line x1="218" y1="27" x2="218" y2="95.8" stroke="#000" stroke-width="0.25"/><text x="223" y="32.3" font-size="2.5" text-anchor="middle" fill="#000">Кол.</text><line x1="25" y1="41" x2="228" y2="41" stroke="#000" stroke-width="0.18"/><text x="26.5" y="39.3" font-size="2.5" text-anchor="start" fill="#000">С5</text><text x="39.5" y="39.3" font-size="2.5" text-anchor="start" fill="#000">Шкаф распашной</text><text x="79.5" y="39.3" font-size="2.5" text-anchor="start" fill="#000">1</text><text x="89.5" y="39.3" font-size="2.5" text-anchor="start" fill="#000">1900×600×2400</text><text x="115.5" y="39.3" font-size="2.5" text-anchor="start" fill="#000">ЛДСП 16</text><text x="135.5" y="39.3" font-size="2.5" text-anchor="start" fill="#000">МДФ 18, эмаль матовая</text><text x="195.5" y="39.3" font-size="2.5" text-anchor="start" fill="#000">0,4 / 2</text><text x="219.5" y="39.3" font-size="2.5" text-anchor="start" fill="#000">1</text><line x1="25" y1="47" x2="228" y2="47" stroke="#000" stroke-width="0.18"/><text x="26.5" y="45.3" font-size="2.5" text-anchor="start" fill="#000">Г1</text><text x="39.5" y="45.3" font-size="2.5" text-anchor="start" fill="#000">Система хранения</text><text x="79.5" y="45.3" font-size="2.5" text-anchor="start" fill="#000">3</text><text x="89.5" y="45.3" font-size="2.5" text-anchor="start" fill="#000">1700×600×2400</text><text x="115.5" y="45.3" font-size="2.5" text-anchor="start" fill="#000">ЛДСП 16</text><text x="135.5" y="45.3" font-size="2.5" text-anchor="start" fill="#000">без фасадов; ящики — МДФ 18, эмаль матовая</text><text x="195.5" y="45.3" font-size="2.5" text-anchor="start" fill="#000">0,4 / 2</text><text x="219.5" y="45.3" font-size="2.5" text-anchor="start" fill="#000">1</text><line x1="25" y1="53" x2="228" y2="53" stroke="#000" stroke-width="0.18"/><text x="26.5" y="51.3" font-size="2.5" text-anchor="start" fill="#000">М16</text><text x="39.5" y="51.3" font-size="2.5" text-anchor="start" fill="#000">Шкаф-купе</text><text x="79.5" y="51.3" font-size="2.5" text-anchor="start" fill="#000">5</text><text x="89.5" y="51.3" font-size="2.5" text-anchor="start" fill="#000">1800×600×2600</text><text x="115.5" y="51.3" font-size="2.5" text-anchor="start" fill="#000">ЛДСП 16</text><text x="135.5" y="51.3" font-size="2.5" text-anchor="start" textLength="48.37" lengthAdjust="spacingAndGlyphs" fill="#000">рифлёные панели МДФ в алюминиевом профиле</text><text x="195.5" y="51.3" font-size="2.5" text-anchor="start" fill="#000">0,4 / 2</text><text x="219.5" y="51.3" font-size="2.5" text-anchor="start" fill="#000">1</text><line x1="25" y1="65.8" x2="228" y2="65.8" stroke="#000" stroke-width="0.18"/><text x="26.5" y="57.3" font-size="2.5" text-anchor="start" fill="#000" textLength="2.85" lengthAdjust="spacingAndGlyphs">М8*</text><text x="39.5" y="57.3" font-size="2.5" text-anchor="start" fill="#000">Модуль нижний: карго,</text><text x="39.5" y="60.7" font-size="2.5" text-anchor="start" fill="#000">духовой шкаф, ящики,</text><text x="39.5" y="64.1" font-size="2.5" text-anchor="start" fill="#000">варочная</text><text x="79.5" y="57.3" font-size="2.5" text-anchor="start" fill="#000">6</text><text x="89.5" y="57.3" font-size="2.5" text-anchor="start" fill="#000">1800×600×900</text><text x="115.5" y="57.3" font-size="2.5" text-anchor="start" fill="#000">ЛДСП 16</text><text x="135.5" y="57.3" font-size="2.5" text-anchor="start" fill="#000">МДФ 18, эмаль матовая</text><text x="195.5" y="57.3" font-size="2.5" text-anchor="start" fill="#000">0,4 / 2</text><text x="219.5" y="57.3" font-size="2.5" text-anchor="start" fill="#000">1</text><line x1="25" y1="71.8" x2="228" y2="71.8" stroke="#000" stroke-width="0.18"/><text x="26.5" y="70.1" font-size="2.5" text-anchor="start" fill="#000" textLength="3.99" lengthAdjust="spacingAndGlyphs">М15*</text><text x="39.5" y="70.1" font-size="2.5" text-anchor="start" fill="#000">Модуль навесной: полки</text><text x="79.5" y="70.1" font-size="2.5" text-anchor="start" fill="#000">6</text><text x="89.5" y="70.1" font-size="2.5" text-anchor="start" fill="#000">600×400×600</text><text x="115.5" y="70.1" font-size="2.5" text-anchor="start" fill="#000">ЛДСП 16</text><text x="135.5" y="70.1" font-size="2.5" text-anchor="start" fill="#000">МДФ 18, эмаль матовая</text><text x="195.5" y="70.1" font-size="2.5" text-anchor="start" fill="#000">0,4 / 2</text><text x="219.5" y="70.1" font-size="2.5" text-anchor="start" fill="#000">1</text><line x1="25" y1="77.8" x2="228" y2="77.8" stroke="#000" stroke-width="0.18"/><text x="26.5" y="76.1" font-size="2.5" text-anchor="start" fill="#000">М13</text><text x="39.5" y="76.1" font-size="2.5" text-anchor="start" textLength="30.52" lengthAdjust="spacingAndGlyphs" fill="#000">Модуль навесной: полки, сушка</text><text x="79.5" y="76.1" font-size="2.5" text-anchor="start" fill="#000">6</text><text x="89.5" y="76.1" font-size="2.5" text-anchor="start" fill="#000">2200×350×720</text><text x="115.5" y="76.1" font-size="2.5" text-anchor="start" fill="#000">ЛДСП 16</text><text x="135.5" y="76.1" font-size="2.5" text-anchor="start" fill="#000">МДФ 18, эмаль матовая</text><text x="195.5" y="76.1" font-size="2.5" text-anchor="start" fill="#000">0,4 / 2</text><text x="219.5" y="76.1" font-size="2.5" text-anchor="start" fill="#000">1</text><line x1="25" y1="83.8" x2="228" y2="83.8" stroke="#000" stroke-width="0.18"/><text x="26.5" y="82.1" font-size="2.5" text-anchor="start" fill="#000" textLength="3.99" lengthAdjust="spacingAndGlyphs">М14*</text><text x="39.5" y="82.1" font-size="2.5" text-anchor="start" fill="#000">Модуль нижний: ПММ</text><text x="79.5" y="82.1" font-size="2.5" text-anchor="start" fill="#000">6</text><text x="89.5" y="82.1" font-size="2.5" text-anchor="start" fill="#000">600×600×900</text><text x="115.5" y="82.1" font-size="2.5" text-anchor="start" fill="#000">ЛДСП 16</text><text x="135.5" y="82.1" font-size="2.5" text-anchor="start" fill="#000">МДФ 18, эмаль матовая</text><text x="195.5" y="82.1" font-size="2.5" text-anchor="start" fill="#000">0,4 / 2</text><text x="219.5" y="82.1" font-size="2.5" text-anchor="start" fill="#000">1</text><line x1="25" y1="89.8" x2="228" y2="89.8" stroke="#000" stroke-width="0.18"/><text x="26.5" y="88.1" font-size="2.5" text-anchor="start" fill="#000" textLength="2.85" lengthAdjust="spacingAndGlyphs">М7*</text><text x="39.5" y="88.1" font-size="2.5" text-anchor="start" fill="#000">Модуль нижний: мойка</text><text x="79.5" y="88.1" font-size="2.5" text-anchor="start" fill="#000">6</text><text x="89.5" y="88.1" font-size="2.5" text-anchor="start" fill="#000">800×600×900</text><text x="115.5" y="88.1" font-size="2.5" text-anchor="start" fill="#000">ЛДСП 16</text><text x="135.5" y="88.1" font-size="2.5" text-anchor="start" fill="#000">МДФ 18, эмаль матовая</text><text x="195.5" y="88.1" font-size="2.5" text-anchor="start" fill="#000">0,4 / 2</text><text x="219.5" y="88.1" font-size="2.5" text-anchor="start" fill="#000">1</text><text x="26.5" y="94.1" font-size="2.5" text-anchor="start" fill="#000" textLength="2.85" lengthAdjust="spacingAndGlyphs">М6*</text><text x="39.5" y="94.1" font-size="2.5" text-anchor="start" fill="#000">Пенал: холодильник встр.</text><text x="79.5" y="94.1" font-size="2.5" text-anchor="start" fill="#000">6</text><text x="89.5" y="94.1" font-size="2.5" text-anchor="start" fill="#000">600×650×2100</text><text x="115.5" y="94.1" font-size="2.5" text-anchor="start" fill="#000">ЛДСП 16</text><text x="135.5" y="94.1" font-size="2.5" text-anchor="start" fill="#000">МДФ 18, эмаль матовая</text><text x="195.5" y="94.1" font-size="2.5" text-anchor="start" fill="#000">0,4 / 2</text><text x="219.5" y="94.1" font-size="2.5" text-anchor="start" fill="#000">1</text></g><g data-el="schedule"><text x="25" y="105.8" font-size="3.5" font-weight="700" fill="#000">Ведомость встраиваемой техники</text><rect x="25" y="107.8" width="203" height="61" fill="none" stroke="#000" stroke-width="0.5"/><line x1="25" y1="115.8" x2="228" y2="115.8" stroke="#000" stroke-width="0.5"/><text x="31.5" y="113.1" font-size="2.5" text-anchor="middle" fill="#000">Поз.</text><line x1="38" y1="107.8" x2="38" y2="168.8" stroke="#000" stroke-width="0.25"/><text x="60" y="113.1" font-size="2.5" text-anchor="middle" fill="#000">Прибор</text><line x1="82" y1="107.8" x2="82" y2="168.8" stroke="#000" stroke-width="0.25"/><text x="104" y="113.1" font-size="2.5" text-anchor="middle" fill="#000">Ниша, вырез, мм</text><line x1="126" y1="107.8" x2="126" y2="168.8" stroke="#000" stroke-width="0.25"/><text x="146" y="113.1" font-size="2.5" text-anchor="middle" fill="#000">Вентиляция</text><line x1="166" y1="107.8" x2="166" y2="168.8" stroke="#000" stroke-width="0.25"/><text x="184.5" y="113.1" font-size="2.5" text-anchor="middle" fill="#000">Питание</text><line x1="203" y1="107.8" x2="203" y2="168.8" stroke="#000" stroke-width="0.25"/><text x="215.5" y="113.1" font-size="2.5" text-anchor="middle" fill="#000">Схема</text><line x1="25" y1="125.2" x2="228" y2="125.2" stroke="#000" stroke-width="0.18"/><text x="26.5" y="120.1" font-size="2.5" text-anchor="start" fill="#000" textLength="4.56" lengthAdjust="spacingAndGlyphs">М8*.2</text><text x="39.5" y="120.1" font-size="2.5" text-anchor="start" textLength="35.05" lengthAdjust="spacingAndGlyphs" fill="#000">Духовой шкаф встраиваемый, 60 см</text><text x="83.5" y="120.1" font-size="2.5" text-anchor="start" fill="#000">ниша 560 × 595, глубина ≥ 550</text><text x="127.5" y="120.1" font-size="2.5" text-anchor="start" fill="#000">зазор за шкафом, вырез в</text><text x="127.5" y="123.5" font-size="2.5" text-anchor="start" fill="#000">задней стенке</text><text x="167.5" y="120.1" font-size="2.5" text-anchor="start" fill="#000">вывод кабеля под шкафом</text><text x="204.5" y="120.1" font-size="2.5" text-anchor="start" fill="#000">по модели</text><line x1="25" y1="131.2" x2="228" y2="131.2" stroke="#000" stroke-width="0.18"/><text x="26.5" y="129.5" font-size="2.5" text-anchor="start" fill="#000" textLength="4.56" lengthAdjust="spacingAndGlyphs">М8*.2</text><text x="39.5" y="129.5" font-size="2.5" text-anchor="start" textLength="37.21" lengthAdjust="spacingAndGlyphs" fill="#000">Варочная панель индукционная, 60 см</text><text x="83.5" y="129.5" font-size="2.5" text-anchor="start" fill="#000">вырез в столешнице 560 × 490</text><text x="127.5" y="129.5" font-size="2.5" text-anchor="start" fill="#000"></text><text x="167.5" y="129.5" font-size="2.5" text-anchor="start" fill="#000">вывод кабеля под модулем</text><text x="204.5" y="129.5" font-size="2.5" text-anchor="start" fill="#000">по модели</text><line x1="25" y1="140.6" x2="228" y2="140.6" stroke="#000" stroke-width="0.18"/><text x="26.5" y="135.5" font-size="2.5" text-anchor="start" fill="#000" textLength="3.99" lengthAdjust="spacingAndGlyphs">М14*</text><text x="39.5" y="135.5" font-size="2.5" text-anchor="start" fill="#000">Посудомоечная машина</text><text x="39.5" y="138.9" font-size="2.5" text-anchor="start" fill="#000">встраиваемая, 60 см</text><text x="83.5" y="135.5" font-size="2.5" text-anchor="start" fill="#000">ниша 600 × 862 (от пола до</text><text x="83.5" y="138.9" font-size="2.5" text-anchor="start" fill="#000">низа столешницы)</text><text x="127.5" y="135.5" font-size="2.5" text-anchor="start" fill="#000">зазор в цоколе, по схеме</text><text x="167.5" y="135.5" font-size="2.5" text-anchor="start" fill="#000">розетка в соседнем модуле</text><text x="204.5" y="135.5" font-size="2.5" text-anchor="start" fill="#000">по модели</text><line x1="25" y1="150" x2="228" y2="150" stroke="#000" stroke-width="0.18"/><text x="26.5" y="144.9" font-size="2.5" text-anchor="start" fill="#000" textLength="2.85" lengthAdjust="spacingAndGlyphs">М7*</text><text x="39.5" y="144.9" font-size="2.5" text-anchor="start" fill="#000">Мойка врезная / подстольная с</text><text x="39.5" y="148.3" font-size="2.5" text-anchor="start" fill="#000">сифоном</text><text x="83.5" y="144.9" font-size="2.5" text-anchor="start" textLength="37.86" lengthAdjust="spacingAndGlyphs" fill="#000">вырез по шаблону, ориентир 700 × 480</text><text x="127.5" y="144.9" font-size="2.5" text-anchor="start" fill="#000"></text><text x="167.5" y="144.9" font-size="2.5" text-anchor="start" fill="#000">смеситель — выводы ВК</text><text x="204.5" y="144.9" font-size="2.5" text-anchor="start" fill="#000">по модели</text><line x1="25" y1="159.4" x2="228" y2="159.4" stroke="#000" stroke-width="0.18"/><text x="26.5" y="154.3" font-size="2.5" text-anchor="start" fill="#000" textLength="2.85" lengthAdjust="spacingAndGlyphs">М6*</text><text x="39.5" y="154.3" font-size="2.5" text-anchor="start" textLength="38.63" lengthAdjust="spacingAndGlyphs" fill="#000">Холодильник встраиваемый, ниша 1780</text><text x="83.5" y="154.3" font-size="2.5" text-anchor="start" fill="#000">ниша 1780 × 560 × 550</text><text x="127.5" y="154.3" font-size="2.5" text-anchor="start" fill="#000">решётка в цоколе, канал за</text><text x="127.5" y="157.7" font-size="2.5" text-anchor="start" fill="#000">корпусом, выход сверху</text><text x="167.5" y="154.3" font-size="2.5" text-anchor="start" fill="#000">розетка над нишей или в</text><text x="167.5" y="157.7" font-size="2.5" text-anchor="start" fill="#000">соседнем модуле</text><text x="204.5" y="154.3" font-size="2.5" text-anchor="start" fill="#000">по модели</text><text x="26.5" y="163.7" font-size="2.5" text-anchor="start" fill="#000" textLength="4.56" lengthAdjust="spacingAndGlyphs">М8*.2</text><text x="39.5" y="163.7" font-size="2.5" text-anchor="start" fill="#000">Вытяжка настенная, 60 см</text><text x="83.5" y="163.7" font-size="2.5" text-anchor="start" fill="#000">низ ≥ 650 над панелью</text><text x="127.5" y="163.7" font-size="2.5" text-anchor="start" fill="#000">воздуховод к вентканалу,</text><text x="127.5" y="167.1" font-size="2.5" text-anchor="start" fill="#000">короб до потолка</text><text x="167.5" y="163.7" font-size="2.5" text-anchor="start" fill="#000">вывод кабеля в коробе</text><text x="204.5" y="163.7" font-size="2.5" text-anchor="start" fill="#000">по модели</text></g><g data-el="schedule"><text x="236" y="25" font-size="3.5" font-weight="700" fill="#000">Ведомость фурнитуры</text><rect x="236" y="27" width="160" height="128" fill="none" stroke="#000" stroke-width="0.5"/><line x1="236" y1="35" x2="396" y2="35" stroke="#000" stroke-width="0.5"/><text x="240" y="32.3" font-size="2.5" text-anchor="middle" fill="#000">№</text><line x1="244" y1="27" x2="244" y2="155" stroke="#000" stroke-width="0.25"/><text x="279" y="32.3" font-size="2.5" text-anchor="middle" fill="#000">Фурнитура</text><line x1="314" y1="27" x2="314" y2="155" stroke="#000" stroke-width="0.25"/><text x="331" y="32.3" font-size="2.5" text-anchor="middle" fill="#000">Тип, размер</text><line x1="348" y1="27" x2="348" y2="155" stroke="#000" stroke-width="0.25"/><text x="367" y="32.3" font-size="2.5" text-anchor="middle" fill="#000">Изделия</text><line x1="386" y1="27" x2="386" y2="155" stroke="#000" stroke-width="0.25"/><text x="391" y="32.3" font-size="2.5" text-anchor="middle" fill="#000">Кол.</text><line x1="236" y1="41" x2="396" y2="41" stroke="#000" stroke-width="0.18"/><text x="237.5" y="39.3" font-size="2.5" text-anchor="start" fill="#000">1</text><text x="245.5" y="39.3" font-size="2.5" text-anchor="start" fill="#000">Петля накладная 110° с доводчиком</text><text x="315.5" y="39.3" font-size="2.5" text-anchor="start" fill="#000">чашка 35 мм</text><text x="349.5" y="39.3" font-size="2.5" text-anchor="start" fill="#000" textLength="21.1" lengthAdjust="spacingAndGlyphs">С5, М15*, М13, М7*, М6*</text><text x="387.5" y="39.3" font-size="2.5" text-anchor="start" fill="#000">51</text><line x1="236" y1="47" x2="396" y2="47" stroke="#000" stroke-width="0.18"/><text x="237.5" y="45.3" font-size="2.5" text-anchor="start" fill="#000">2</text><text x="245.5" y="45.3" font-size="2.5" text-anchor="start" fill="#000">Полкодержатель с фиксацией</text><text x="315.5" y="45.3" font-size="2.5" text-anchor="start" fill="#000">ø5 мм</text><text x="349.5" y="45.3" font-size="2.5" text-anchor="start" fill="#000" textLength="25.68" lengthAdjust="spacingAndGlyphs">С5, Г1, М16, М15*, М13, М6*</text><text x="387.5" y="45.3" font-size="2.5" text-anchor="start" fill="#000">96</text><line x1="236" y1="53" x2="396" y2="53" stroke="#000" stroke-width="0.18"/><text x="237.5" y="51.3" font-size="2.5" text-anchor="start" fill="#000">3</text><text x="245.5" y="51.3" font-size="2.5" text-anchor="start" fill="#000">Штанга овальная 30×15, L = 926</text><text x="315.5" y="51.3" font-size="2.5" text-anchor="start" fill="#000">+ 2 держателя</text><text x="349.5" y="51.3" font-size="2.5" text-anchor="start" fill="#000">С5</text><text x="387.5" y="51.3" font-size="2.5" text-anchor="start" fill="#000">1</text><line x1="236" y1="59" x2="396" y2="59" stroke="#000" stroke-width="0.18"/><text x="237.5" y="57.3" font-size="2.5" text-anchor="start" fill="#000">4</text><text x="245.5" y="57.3" font-size="2.5" text-anchor="start" fill="#000">Опора регулируемая с цоколем на клипсах</text><text x="315.5" y="57.3" font-size="2.5" text-anchor="start" fill="#000">ход 20 мм</text><text x="349.5" y="57.3" font-size="2.5" text-anchor="start" fill="#000">С5, Г1, М16</text><text x="387.5" y="57.3" font-size="2.5" text-anchor="start" fill="#000">24</text><line x1="236" y1="65" x2="396" y2="65" stroke="#000" stroke-width="0.18"/><text x="237.5" y="63.3" font-size="2.5" text-anchor="start" fill="#000">5</text><text x="245.5" y="63.3" font-size="2.5" text-anchor="start" fill="#000">Анкер по основанию стены</text><text x="315.5" y="63.3" font-size="2.5" text-anchor="start" fill="#000">по таблице крепежа</text><text x="349.5" y="63.3" font-size="2.5" text-anchor="start" fill="#000" textLength="21.63" lengthAdjust="spacingAndGlyphs">С5, Г1, М16, М15*, М13</text><text x="387.5" y="63.3" font-size="2.5" text-anchor="start" fill="#000">28</text><line x1="236" y1="71" x2="396" y2="71" stroke="#000" stroke-width="0.18"/><text x="237.5" y="69.3" font-size="2.5" text-anchor="start" fill="#000">6</text><text x="245.5" y="69.3" font-size="2.5" text-anchor="start" fill="#000">Уголок крепления к стене от опрокидывания</text><text x="315.5" y="69.3" font-size="2.5" text-anchor="start" fill="#000">стальной</text><text x="349.5" y="69.3" font-size="2.5" text-anchor="start" fill="#000" textLength="15.3" lengthAdjust="spacingAndGlyphs">С5, Г1, М16, М6*</text><text x="387.5" y="69.3" font-size="2.5" text-anchor="start" fill="#000">8</text><line x1="236" y1="77" x2="396" y2="77" stroke="#000" stroke-width="0.18"/><text x="237.5" y="75.3" font-size="2.5" text-anchor="start" fill="#000">7</text><text x="245.5" y="75.3" font-size="2.5" text-anchor="start" fill="#000">Штанга овальная 30×15, L = 545</text><text x="315.5" y="75.3" font-size="2.5" text-anchor="start" fill="#000">+ 2 держателя</text><text x="349.5" y="75.3" font-size="2.5" text-anchor="start" fill="#000">Г1</text><text x="387.5" y="75.3" font-size="2.5" text-anchor="start" fill="#000">3</text><line x1="236" y1="83" x2="396" y2="83" stroke="#000" stroke-width="0.18"/><text x="237.5" y="81.3" font-size="2.5" text-anchor="start" fill="#000">8</text><text x="245.5" y="81.3" font-size="2.5" text-anchor="start" fill="#000">Система дверей купе: профиль, направляющие, ролики</text><text x="315.5" y="81.3" font-size="2.5" text-anchor="start" fill="#000">на 2 двери</text><text x="349.5" y="81.3" font-size="2.5" text-anchor="start" fill="#000">М16</text><text x="387.5" y="81.3" font-size="2.5" text-anchor="start" fill="#000">1</text><line x1="236" y1="89" x2="396" y2="89" stroke="#000" stroke-width="0.18"/><text x="237.5" y="87.3" font-size="2.5" text-anchor="start" fill="#000">9</text><text x="245.5" y="87.3" font-size="2.5" text-anchor="start" fill="#000">Ручка-профиль вертикальная</text><text x="315.5" y="87.3" font-size="2.5" text-anchor="start" fill="#000">в цвет профиля</text><text x="349.5" y="87.3" font-size="2.5" text-anchor="start" fill="#000">М16</text><text x="387.5" y="87.3" font-size="2.5" text-anchor="start" fill="#000">2</text><line x1="236" y1="95" x2="396" y2="95" stroke="#000" stroke-width="0.18"/><text x="237.5" y="93.3" font-size="2.5" text-anchor="start" fill="#000">10</text><text x="245.5" y="93.3" font-size="2.5" text-anchor="start" fill="#000">Штанга овальная 30×15, L = 876</text><text x="315.5" y="93.3" font-size="2.5" text-anchor="start" fill="#000">+ 2 держателя</text><text x="349.5" y="93.3" font-size="2.5" text-anchor="start" fill="#000">М16</text><text x="387.5" y="93.3" font-size="2.5" text-anchor="start" fill="#000">1</text><line x1="236" y1="101" x2="396" y2="101" stroke="#000" stroke-width="0.18"/><text x="237.5" y="99.3" font-size="2.5" text-anchor="start" fill="#000">11</text><text x="245.5" y="99.3" font-size="2.5" text-anchor="start" fill="#000">Полка для обуви выдвижная наклонная</text><text x="315.5" y="99.3" font-size="2.5" text-anchor="start" fill="#000">ширина 876</text><text x="349.5" y="99.3" font-size="2.5" text-anchor="start" fill="#000">М16</text><text x="387.5" y="99.3" font-size="2.5" text-anchor="start" fill="#000">3</text><line x1="236" y1="107" x2="396" y2="107" stroke="#000" stroke-width="0.18"/><text x="237.5" y="105.3" font-size="2.5" text-anchor="start" fill="#000">12</text><text x="245.5" y="105.3" font-size="2.5" text-anchor="start" fill="#000">Карго выдвижное 3-уровневое</text><text x="315.5" y="105.3" font-size="2.5" text-anchor="start" fill="#000">ширина 350</text><text x="349.5" y="105.3" font-size="2.5" text-anchor="start" fill="#000" textLength="2.85" lengthAdjust="spacingAndGlyphs">М8*</text><text x="387.5" y="105.3" font-size="2.5" text-anchor="start" fill="#000">1</text><line x1="236" y1="113" x2="396" y2="113" stroke="#000" stroke-width="0.18"/><text x="237.5" y="111.3" font-size="2.5" text-anchor="start" fill="#000">13</text><text x="245.5" y="111.3" font-size="2.5" text-anchor="start" textLength="56.74" lengthAdjust="spacingAndGlyphs" fill="#000">Направляющие полного выдвижения с доводчиком NL 500</text><text x="315.5" y="111.3" font-size="2.5" text-anchor="start" fill="#000">пара</text><text x="349.5" y="111.3" font-size="2.5" text-anchor="start" fill="#000" textLength="2.85" lengthAdjust="spacingAndGlyphs">М8*</text><text x="387.5" y="111.3" font-size="2.5" text-anchor="start" fill="#000">4</text><line x1="236" y1="119" x2="396" y2="119" stroke="#000" stroke-width="0.18"/><text x="237.5" y="117.3" font-size="2.5" text-anchor="start" fill="#000">14</text><text x="245.5" y="117.3" font-size="2.5" text-anchor="start" fill="#000">Ручка-профиль</text><text x="315.5" y="117.3" font-size="2.5" text-anchor="start" fill="#000">латунь матовая</text><text x="349.5" y="117.3" font-size="2.5" text-anchor="start" fill="#000" textLength="26.52" lengthAdjust="spacingAndGlyphs">М8*, М15*, М13, М14*, М7*, М6*</text><text x="387.5" y="117.3" font-size="2.5" text-anchor="start" fill="#000">19</text><line x1="236" y1="125" x2="396" y2="125" stroke="#000" stroke-width="0.18"/><text x="237.5" y="123.3" font-size="2.5" text-anchor="start" fill="#000">15</text><text x="245.5" y="123.3" font-size="2.5" text-anchor="start" fill="#000">Опора кухонная регулируемая 100–120 мм</text><text x="315.5" y="123.3" font-size="2.5" text-anchor="start" fill="#000">+ клипса цоколя</text><text x="349.5" y="123.3" font-size="2.5" text-anchor="start" fill="#000" textLength="16.14" lengthAdjust="spacingAndGlyphs">М8*, М14*, М7*, М6*</text><text x="387.5" y="123.3" font-size="2.5" text-anchor="start" fill="#000">20</text><line x1="236" y1="131" x2="396" y2="131" stroke="#000" stroke-width="0.18"/><text x="237.5" y="129.3" font-size="2.5" text-anchor="start" fill="#000">16</text><text x="245.5" y="129.3" font-size="2.5" text-anchor="start" fill="#000">Навес регулируемый для навесного шкафа</text><text x="315.5" y="129.3" font-size="2.5" text-anchor="start" fill="#000">пара на секцию</text><text x="349.5" y="129.3" font-size="2.5" text-anchor="start" fill="#000" textLength="9.18" lengthAdjust="spacingAndGlyphs">М15*, М13</text><text x="387.5" y="129.3" font-size="2.5" text-anchor="start" fill="#000">4</text><line x1="236" y1="137" x2="396" y2="137" stroke="#000" stroke-width="0.18"/><text x="237.5" y="135.3" font-size="2.5" text-anchor="start" fill="#000">17</text><text x="245.5" y="135.3" font-size="2.5" text-anchor="start" fill="#000">Шина монтажная</text><text x="315.5" y="135.3" font-size="2.5" text-anchor="start" fill="#000">L = 540</text><text x="349.5" y="135.3" font-size="2.5" text-anchor="start" fill="#000" textLength="3.99" lengthAdjust="spacingAndGlyphs">М15*</text><text x="387.5" y="135.3" font-size="2.5" text-anchor="start" fill="#000">1</text><line x1="236" y1="143" x2="396" y2="143" stroke="#000" stroke-width="0.18"/><text x="237.5" y="141.3" font-size="2.5" text-anchor="start" fill="#000">18</text><text x="245.5" y="141.3" font-size="2.5" text-anchor="start" fill="#000">Сушка для посуды в шкаф</text><text x="315.5" y="141.3" font-size="2.5" text-anchor="start" fill="#000">ширина 800</text><text x="349.5" y="141.3" font-size="2.5" text-anchor="start" fill="#000">М13</text><text x="387.5" y="141.3" font-size="2.5" text-anchor="start" fill="#000">1</text><line x1="236" y1="149" x2="396" y2="149" stroke="#000" stroke-width="0.18"/><text x="237.5" y="147.3" font-size="2.5" text-anchor="start" fill="#000">19</text><text x="245.5" y="147.3" font-size="2.5" text-anchor="start" fill="#000">Шина монтажная</text><text x="315.5" y="147.3" font-size="2.5" text-anchor="start" fill="#000">L = 2140</text><text x="349.5" y="147.3" font-size="2.5" text-anchor="start" fill="#000">М13</text><text x="387.5" y="147.3" font-size="2.5" text-anchor="start" fill="#000">1</text><text x="237.5" y="153.3" font-size="2.5" text-anchor="start" fill="#000">20</text><text x="245.5" y="153.3" font-size="2.5" text-anchor="start" fill="#000">Комплект навески фасада ПММ</text><text x="315.5" y="153.3" font-size="2.5" text-anchor="start" fill="#000">из поставки машины</text><text x="349.5" y="153.3" font-size="2.5" text-anchor="start" fill="#000" textLength="3.99" lengthAdjust="spacingAndGlyphs">М14*</text><text x="387.5" y="153.3" font-size="2.5" text-anchor="start" fill="#000">1</text></g><g data-el="notes"><text x="25" y="240" font-size="3.5" font-weight="700" fill="#000">Примечания</text><text x="25" y="245" font-size="2.5" fill="#000">1. Модели техники выбирает заказчик до изготовления мебели; ниши, вырезы и вентиляция — по монтажной схеме выбранной модели (условие</text><text x="25" y="248.6" font-size="2.5" fill="#000">гарантии), её номер вносится в ведомость.</text><text x="25" y="252.2" font-size="2.5" fill="#000">2. Количество фурнитуры — по чертежам изделий; запас крепежа 5 %. Аналоги — по характеристикам (доводчик, нагрузка, ход).</text><text x="25" y="255.8" font-size="2.5" fill="#000">3. Цвет корпусов, фасадов и профилей — по колерной карте проекта.</text><text x="25" y="259.4" font-size="2.5" fill="#000" textLength="145.04" lengthAdjust="spacingAndGlyphs">4. Допущение проекта: кухня: раскладка гарнитура принята проектной, решение автора (ИЗ-12) — мойка М7* у шахты Ш2, ПММ М14* рядом с мойкой,</text><text x="25" y="263" font-size="2.5" fill="#000" textLength="141.32" lengthAdjust="spacingAndGlyphs">варочная и духовой шкаф в М8*, вытяжка М15*, холодильник М6*; выводы техники — по типовой расстановке; условие: до начала черновых работ</text><text x="25" y="266.6" font-size="2.5" fill="#000">сверить раскладку и выводы с чертежом кухни от изготовителя, выводы пересматриваются по его чертежу (вопрос К-8).</text><text x="25" y="270.2" font-size="2.5" fill="#000">5. Марки из допущений, которых нет на этом листе: Ш2 — лист 28.</text></g><g data-el="assumed-notes" data-flags="furniture:М6|furniture:М7|furniture:М14|furniture:М8|furniture:М15" data-ids="ИЗ-5 К-8 К-11 К-12 К-13 К-14 К-18 К-20" data-level="0"><text x="45.5" y="210.3" font-size="2.5" font-weight="700" fill="#000">Допущения и предложения на листе</text><text x="45.5" y="213.7" font-size="2.5" fill="#000">Основа листа: размеры сняты со скана плана заказчика по размерным цепочкам, контрольный обмер на объекте не выполнялся (К-13); высота потолка 2700 мм принята: на плане заказчика не</text><text x="45.5" y="217.1" font-size="2.5" fill="#000">указана (К-11); толщины стен приняты: наружные 250 мм, перегородки 150 мм (на плане 85–190 мм) (К-13); разрешённая мощность 15 кВт принята по типовой квартире, технических условий нет</text><text x="45.5" y="220.5" font-size="2.5" fill="#000">(К-14); утолщение стены 190 × 1360 мм и элемент 1470 × 160 мм плана заказчика не определены (К-12); ниши санузла 2 закрыты перегородкой и фальш-стеной: проектное решение, на плане</text><text x="45.5" y="223.9" font-size="2.5" fill="#000">заказчика ниша у входа открыта (К-18); несущие стены не определены: до технического заключения все существующие стены считаются несущими (К-20).</text><text x="45.5" y="227.3" font-size="2.5" fill="#000">Знак «*» — принято, не замерено и не подтверждено: К-8: М7, М14, М8.</text><text x="45.5" y="230.7" font-size="2.5" fill="#000">Знак «*» — предложение проектировщика, заказчиком не утверждено: ИЗ-5, К-8: М6, М15.</text><text x="45.5" y="234.1" font-size="2.5" fill="#000">См. лист открытых вопросов (лист 5, запись К-8; лист 6, записи К-11–К-14, К-18, К-20; лист 7, запись ИЗ-5).</text></g><g data-el="stamp"><rect x="230" y="237" width="185" height="55" fill="none" stroke="#000" stroke-width="0.7"/><line x1="230" y1="242" x2="295" y2="242" stroke="#000" stroke-width="0.25"/><line x1="230" y1="247" x2="295" y2="247" stroke="#000" stroke-width="0.25"/><line x1="230" y1="252" x2="295" y2="252" stroke="#000" stroke-width="0.25"/><line x1="230" y1="257" x2="295" y2="257" stroke="#000" stroke-width="0.5"/><line x1="230" y1="262" x2="295" y2="262" stroke="#000" stroke-width="0.5"/><line x1="230" y1="267" x2="295" y2="267" stroke="#000" stroke-width="0.25"/><line x1="230" y1="272" x2="295" y2="272" stroke="#000" stroke-width="0.25"/><line x1="230" y1="277" x2="295" y2="277" stroke="#000" stroke-width="0.25"/><line x1="230" y1="282" x2="295" y2="282" stroke="#000" stroke-width="0.25"/><line x1="230" y1="287" x2="295" y2="287" stroke="#000" stroke-width="0.25"/><line x1="240" y1="237" x2="240" y2="262" stroke="#000" stroke-width="0.5"/><line x1="250" y1="237" x2="250" y2="262" stroke="#000" stroke-width="0.5"/><line x1="260" y1="237" x2="260" y2="262" stroke="#000" stroke-width="0.5"/><line x1="270" y1="237" x2="270" y2="262" stroke="#000" stroke-width="0.5"/><line x1="285" y1="237" x2="285" y2="262" stroke="#000" stroke-width="0.5"/><line x1="250" y1="262" x2="250" y2="292" stroke="#000" stroke-width="0.5"/><line x1="270" y1="262" x2="270" y2="292" stroke="#000" stroke-width="0.5"/><line x1="285" y1="262" x2="285" y2="292" stroke="#000" stroke-width="0.5"/><line x1="295" y1="237" x2="295" y2="292" stroke="#000" stroke-width="0.7"/><text x="235" y="260.8" font-size="2.5" text-anchor="middle" fill="#000">Изм.</text><text x="245" y="260.8" font-size="2.5" text-anchor="middle" fill="#000">Кол.уч</text><text x="255" y="260.8" font-size="2.5" text-anchor="middle" fill="#000">Лист</text><text x="265" y="260.8" font-size="2.5" text-anchor="middle" fill="#000">№ док.</text><text x="277.5" y="260.8" font-size="2.5" text-anchor="middle" fill="#000">Подп.</text><text x="290" y="260.8" font-size="2.5" text-anchor="middle" fill="#000">Дата</text><text x="231" y="265.8" font-size="2.5" fill="#000">Разраб.</text><text x="251" y="265.8" font-size="2.5" fill="#000">Кырлан А.С.</text><text x="290" y="265.8" font-size="2.5" text-anchor="middle" textLength="7.98" lengthAdjust="spacingAndGlyphs" fill="#000">05.10.26</text><text x="231" y="270.8" font-size="2.5" fill="#000">Пров.</text><text x="231" y="275.8" font-size="2.5" fill="#000">ГИП</text><text x="231" y="285.8" font-size="2.5" fill="#000">Н. контр.</text><text x="231" y="290.8" font-size="2.5" fill="#000">Утв.</text><text x="355" y="244.3" font-size="5" text-anchor="middle" font-weight="700" fill="#000">ГД-2026-003-АИ</text><line x1="295" y1="247" x2="415" y2="247" stroke="#000" stroke-width="0.7"/><text x="297" y="253.6" font-size="3.5" fill="#000">Трёхкомнатная квартира</text><text x="297" y="259.2" font-size="2.5" fill="#000">Общая площадь 78,95* м² · * размеры со скана, не замерены (реестр — л. 5–8, К-13)</text><line x1="295" y1="262" x2="415" y2="262" stroke="#000" stroke-width="0.7"/><text x="297" y="270.6" font-size="2.5" fill="#000">Дизайн-проект интерьера трёхкомнатной квартиры</text><line x1="365" y1="262" x2="365" y2="292" stroke="#000" stroke-width="0.7"/><line x1="365" y1="267" x2="415" y2="267" stroke="#000" stroke-width="0.25"/><line x1="380" y1="262" x2="380" y2="277" stroke="#000" stroke-width="0.5"/><line x1="395" y1="262" x2="395" y2="277" stroke="#000" stroke-width="0.5"/><text x="372.5" y="265.8" font-size="2.5" text-anchor="middle" fill="#000">Стадия</text><text x="387.5" y="265.8" font-size="2.5" text-anchor="middle" fill="#000">Лист</text><text x="405" y="265.8" font-size="2.5" text-anchor="middle" fill="#000">Листов</text><text x="372.5" y="273.8" font-size="3.5" text-anchor="middle" fill="#000">РП</text><text x="387.5" y="273.8" font-size="3.5" text-anchor="middle" fill="#000">54</text><text x="405" y="273.8" font-size="3.5" text-anchor="middle" fill="#000">79</text><line x1="295" y1="277" x2="415" y2="277" stroke="#000" stroke-width="0.7"/><text x="330" y="285" font-size="2.5" text-anchor="middle" font-weight="700" fill="#000">Ведомости изделий, техники и фурнитуры</text><text x="330" y="290.2" font-size="2.5" text-anchor="middle" fill="#000">М б/м</text><text x="390" y="285.8" font-size="2.5" text-anchor="middle" font-weight="700" fill="#000">Кырлан Александр Сергеевич</text></g><g data-el="release-mark" data-release="preliminary" data-open="20" data-positions="37" data-basis="7"><rect x="314.27" y="6.2" width="99.23" height="4.8" fill="#fff" stroke="#000" stroke-width="0.5"/><text x="316.27" y="9.6" font-size="2.5" font-weight="700" fill="#000">ПРЕДВАРИТЕЛЬНО · не для производства работ · открыто пунктов: 20 (реестр — л. 5–8)</text></g></svg>