<svg xmlns="http://www.w3.org/2000/svg" width="1587" height="1123" viewBox="0 0 1587 1123" font-family='Inter, "Helvetica Neue", Arial, sans-serif' data-sheet="ceiling" data-scale="1:50"><rect width="1587" height="1123" fill="#FFFFFF"/><rect x="76" y="19" width="1492" height="1085" fill="none" stroke="#1C1C1C" stroke-width="1.6"/><g transform="translate(284.57230000000004 127.6584) scale(0.9449)"><defs><pattern id="wh7" width="7" height="7" patternUnits="userSpaceOnUse" patternTransform="rotate(45)"><rect width="7" height="7" fill="#DFDFDF"/><line x1="0" y1="0" x2="0" y2="7" stroke="#C4C4C4" stroke-width="2.22"/></pattern></defs><rect x="70" y="74" width="732" height="572" fill="url(#wh7)" stroke="#9A9A9A" stroke-width="1.11"/><rect x="86" y="90" width="700" height="540" fill="#DFDFDF"/><rect x="86" y="90" width="416" height="320" fill="#FFFFFF" stroke="#9A9A9A" stroke-width="0.89"/><rect x="514" y="90" width="272" height="320" fill="#FFFFFF" stroke="#9A9A9A" stroke-width="0.89"/><rect x="86" y="422" width="264" height="208" fill="#FFFFFF" stroke="#9A9A9A" stroke-width="0.89"/><rect x="638" y="422" width="148" height="208" fill="#FFFFFF" stroke="#9A9A9A" stroke-width="0.89"/><rect x="362" y="422" width="264" height="208" fill="#FFFFFF" stroke="#9A9A9A" stroke-width="0.89"/><rect x="382" y="406.8" width="72" height="25.6" fill="#FFFFFF"/><line x1="382" y1="410" x2="382" y2="338" stroke="#2A2A2A" stroke-width="1.56"/><path d="M 454 410 A 72 72 0 0 0 382 338" fill="none" stroke="#2A2A2A" stroke-width="0.78"/><rect x="546" y="406.8" width="72" height="25.6" fill="#FFFFFF"/><line x1="546" y1="410" x2="546" y2="338" stroke="#2A2A2A" stroke-width="1.56"/><path d="M 618 410 A 72 72 0 0 0 546 338" fill="none" stroke="#2A2A2A" stroke-width="0.78"/><rect x="346.8" y="470" width="25.6" height="64" fill="#FFFFFF"/><line x1="350" y1="470" x2="286" y2="470" stroke="#2A2A2A" stroke-width="1.56"/><path d="M 350 534 A 64 64 0 0 0 286 470" fill="none" stroke="#2A2A2A" stroke-width="0.78"/><rect x="615.6" y="470" width="25.6" height="56" fill="#FFFFFF"/><line x1="638" y1="470" x2="694" y2="470" stroke="#2A2A2A" stroke-width="1.56"/><path d="M 638 526 A 56 56 0 0 1 694 470" fill="none" stroke="#2A2A2A" stroke-width="0.78"/><rect x="450" y="626.8" width="80" height="25.6" fill="#FFFFFF"/><line x1="450" y1="630" x2="450" y2="550" stroke="#2A2A2A" stroke-width="1.56"/><path d="M 530 630 A 80 80 0 0 0 450 550" fill="none" stroke="#2A2A2A" stroke-width="0.78"/><rect x="214" y="74" width="144" height="16" fill="#FFFFFF" stroke="#1C1C1C" stroke-width="1.11"/><line x1="214" y1="79.8" x2="358" y2="79.8" stroke="#7FB2C8" stroke-width="1.78"/><line x1="214" y1="84.2" x2="358" y2="84.2" stroke="#1C1C1C" stroke-width="0.78"/><rect x="590" y="74" width="120" height="16" fill="#FFFFFF" stroke="#1C1C1C" stroke-width="1.11"/><line x1="590" y1="79.8" x2="710" y2="79.8" stroke="#7FB2C8" stroke-width="1.78"/><line x1="590" y1="84.2" x2="710" y2="84.2" stroke="#1C1C1C" stroke-width="0.78"/><rect x="158" y="630" width="112" height="16" fill="#FFFFFF" stroke="#1C1C1C" stroke-width="1.11"/><line x1="158" y1="635.8" x2="270" y2="635.8" stroke="#7FB2C8" stroke-width="1.78"/><line x1="158" y1="640.2" x2="270" y2="640.2" stroke="#1C1C1C" stroke-width="0.78"/><circle cx="766" cy="442" r="4.4" fill="#FFF" stroke="#2E6FA8" stroke-width="1.22"/><line x1="761.6" y1="442" x2="770.4" y2="442" stroke="#2E6FA8" stroke-width="0.78"/><line x1="766" y1="437.6" x2="766" y2="446.4" stroke="#2E6FA8" stroke-width="0.78"/><circle cx="778.8" cy="442" r="2.5" fill="#FFF" stroke="#2E9BD8" stroke-width="1.22"/><line x1="776.3" y1="442" x2="781.3" y2="442" stroke="#2E9BD8" stroke-width="0.78"/><line x1="778.8" y1="439.5" x2="778.8" y2="444.5" stroke="#2E9BD8" stroke-width="0.78"/><rect x="86" y="90" width="416" height="320" fill="#E9E4D8"/><rect x="122" y="126" width="344" height="248" fill="#F6F3EC" stroke="#57514A" stroke-width="1.00"/><rect x="125" y="129" width="338" height="242" fill="none" stroke="#C29A5B" stroke-width="1.22" stroke-dasharray="5 3"/><rect x="176.2" y="221.6" width="189.2" height="136.4" fill="#E0D9C9" stroke="#57514A" stroke-width="1.00"/><circle cx="134" cy="250" r="3" fill="#FFF" stroke="#57514A" stroke-width="0.89"/><circle cx="134" cy="362" r="3" fill="#FFF" stroke="#57514A" stroke-width="0.89"/><circle cx="240.7" cy="250" r="3" fill="#FFF" stroke="#57514A" stroke-width="0.89"/><circle cx="240.7" cy="362" r="3" fill="#FFF" stroke="#57514A" stroke-width="0.89"/><circle cx="347.3" cy="250" r="3" fill="#FFF" stroke="#57514A" stroke-width="0.89"/><circle cx="347.3" cy="362" r="3" fill="#FFF" stroke="#57514A" stroke-width="0.89"/><circle cx="454" cy="250" r="3" fill="#FFF" stroke="#57514A" stroke-width="0.89"/><circle cx="454" cy="362" r="3" fill="#FFF" stroke="#57514A" stroke-width="0.89"/><rect x="514" y="90" width="272" height="320" fill="#E9E4D8"/><rect x="546.8" y="122.8" width="206.4" height="254.4" fill="#F6F3EC" stroke="#57514A" stroke-width="1.00"/><rect x="549.8" y="125.8" width="200.4" height="248.4" fill="none" stroke="#C29A5B" stroke-width="1.22" stroke-dasharray="5 3"/><circle cx="562" cy="362" r="3" fill="#FFF" stroke="#57514A" stroke-width="0.89"/><circle cx="650" cy="138" r="3" fill="#FFF" stroke="#57514A" stroke-width="0.89"/><circle cx="650" cy="362" r="3" fill="#FFF" stroke="#57514A" stroke-width="0.89"/><circle cx="738" cy="138" r="3" fill="#FFF" stroke="#57514A" stroke-width="0.89"/><circle cx="738" cy="362" r="3" fill="#FFF" stroke="#57514A" stroke-width="0.89"/><rect x="86" y="422" width="264" height="208" fill="#E9E4D8"/><rect x="110.8" y="446.8" width="214.4" height="158.4" fill="#F6F3EC" stroke="#57514A" stroke-width="1.00"/><rect x="113.8" y="449.8" width="208.4" height="152.4" fill="none" stroke="#C29A5B" stroke-width="1.22" stroke-dasharray="5 3"/><circle cx="218" cy="470" r="3" fill="#FFF" stroke="#57514A" stroke-width="0.89"/><circle cx="218" cy="582" r="3" fill="#FFF" stroke="#57514A" stroke-width="0.89"/><circle cx="302" cy="470" r="3" fill="#FFF" stroke="#57514A" stroke-width="0.89"/><circle cx="302" cy="582" r="3" fill="#FFF" stroke="#57514A" stroke-width="0.89"/><rect x="638" y="422" width="148" height="208" fill="#E9E4D8"/><rect x="754" y="430" width="24" height="24" fill="none" stroke="#57514A" stroke-width="1.11" stroke-dasharray="4 2"/><line x1="754" y1="430" x2="778" y2="454" stroke="#57514A" stroke-width="0.72"/><rect x="638" y="422" width="148" height="208" fill="#F6F3EC" stroke="#57514A" stroke-width="0.72"/><rect x="641" y="425" width="142" height="202" fill="none" stroke="#C29A5B" stroke-width="1.22" stroke-dasharray="5 3"/><circle cx="686" cy="470" r="3" fill="#FFF" stroke="#57514A" stroke-width="0.89"/><circle cx="686" cy="582" r="3" fill="#FFF" stroke="#57514A" stroke-width="0.89"/><circle cx="738" cy="470" r="3" fill="#FFF" stroke="#57514A" stroke-width="0.89"/><circle cx="738" cy="582" r="3" fill="#FFF" stroke="#57514A" stroke-width="0.89"/><rect x="362" y="422" width="264" height="208" fill="#E9E4D8"/><rect x="594" y="430" width="24" height="24" fill="none" stroke="#57514A" stroke-width="1.11" stroke-dasharray="4 2"/><line x1="594" y1="430" x2="618" y2="454" stroke="#57514A" stroke-width="0.72"/><rect x="362" y="422" width="264" height="208" fill="#F6F3EC" stroke="#57514A" stroke-width="0.72"/><rect x="365" y="425" width="258" height="202" fill="none" stroke="#C29A5B" stroke-width="1.22" stroke-dasharray="5 3"/><circle cx="410" cy="582" r="3" fill="#FFF" stroke="#57514A" stroke-width="0.89"/><circle cx="494" cy="582" r="3" fill="#FFF" stroke="#57514A" stroke-width="0.89"/><circle cx="578" cy="470" r="3" fill="#FFF" stroke="#57514A" stroke-width="0.89"/><circle cx="578" cy="582" r="3" fill="#FFF" stroke="#57514A" stroke-width="0.89"/><g data-el="chain"><g data-el="dim" stroke="#2A2A2A" stroke-width="0.89" fill="none"><line x1="86" y1="670" x2="350" y2="670"/><line x1="86" y1="665" x2="86" y2="675"/><line x1="350" y1="665" x2="350" y2="675"/><line x1="83" y1="673" x2="89" y2="667"/><line x1="347" y1="673" x2="353" y2="667"/></g>
<text x="218" y="665" font-size="11.67" fill="#2A2A2A" text-anchor="middle">3300</text><g data-el="dim" stroke="#2A2A2A" stroke-width="0.89" fill="none"><line x1="350" y1="670" x2="362" y2="670"/><line x1="350" y1="665" x2="350" y2="675"/><line x1="362" y1="665" x2="362" y2="675"/><line x1="347" y1="673" x2="353" y2="667"/><line x1="359" y1="673" x2="365" y2="667"/></g>
<text x="356" y="665" font-size="11.67" fill="#2A2A2A" text-anchor="middle">150</text><g data-el="dim" stroke="#2A2A2A" stroke-width="0.89" fill="none"><line x1="362" y1="670" x2="502" y2="670"/><line x1="362" y1="665" x2="362" y2="675"/><line x1="502" y1="665" x2="502" y2="675"/><line x1="359" y1="673" x2="365" y2="667"/><line x1="499" y1="673" x2="505" y2="667"/></g>
<text x="432" y="665" font-size="11.67" fill="#2A2A2A" text-anchor="middle">1750</text><g data-el="dim" stroke="#2A2A2A" stroke-width="0.89" fill="none"><line x1="502" y1="670" x2="514" y2="670"/><line x1="502" y1="665" x2="502" y2="675"/><line x1="514" y1="665" x2="514" y2="675"/><line x1="499" y1="673" x2="505" y2="667"/><line x1="511" y1="673" x2="517" y2="667"/></g>
<text x="508" y="665" font-size="11.67" fill="#2A2A2A" text-anchor="middle">150</text><g data-el="dim" stroke="#2A2A2A" stroke-width="0.89" fill="none"><line x1="514" y1="670" x2="626" y2="670"/><line x1="514" y1="665" x2="514" y2="675"/><line x1="626" y1="665" x2="626" y2="675"/><line x1="511" y1="673" x2="517" y2="667"/><line x1="623" y1="673" x2="629" y2="667"/></g>
<text x="570" y="665" font-size="11.67" fill="#2A2A2A" text-anchor="middle">1400</text><g data-el="dim" stroke="#2A2A2A" stroke-width="0.89" fill="none"><line x1="626" y1="670" x2="638" y2="670"/><line x1="626" y1="665" x2="626" y2="675"/><line x1="638" y1="665" x2="638" y2="675"/><line x1="623" y1="673" x2="629" y2="667"/><line x1="635" y1="673" x2="641" y2="667"/></g>
<text x="632" y="665" font-size="11.67" fill="#2A2A2A" text-anchor="middle">150</text><g data-el="dim" stroke="#2A2A2A" stroke-width="0.89" fill="none"><line x1="638" y1="670" x2="786" y2="670"/><line x1="638" y1="665" x2="638" y2="675"/><line x1="786" y1="665" x2="786" y2="675"/><line x1="635" y1="673" x2="641" y2="667"/><line x1="783" y1="673" x2="789" y2="667"/></g>
<text x="712" y="665" font-size="11.67" fill="#2A2A2A" text-anchor="middle">1850</text><g data-el="dim" stroke="#2A2A2A" stroke-width="0.89" fill="none"><line x1="70" y1="692" x2="802" y2="692"/><line x1="70" y1="687" x2="70" y2="697"/><line x1="802" y1="687" x2="802" y2="697"/><line x1="67" y1="695" x2="73" y2="689"/><line x1="799" y1="695" x2="805" y2="689"/></g>
<text x="436" y="687" font-size="11.67" fill="#2A2A2A" text-anchor="middle">9150</text></g><g data-el="chain"><g data-el="dim" stroke="#2A2A2A" stroke-width="0.89" fill="none"><line x1="826" y1="90" x2="826" y2="410"/><line x1="821" y1="90" x2="831" y2="90"/><line x1="821" y1="410" x2="831" y2="410"/><line x1="823" y1="93" x2="829" y2="87"/><line x1="823" y1="413" x2="829" y2="407"/></g>
<text x="832" y="250" font-size="11.67" fill="#2A2A2A" transform="rotate(-90 832 250)" text-anchor="middle">4000</text><g data-el="dim" stroke="#2A2A2A" stroke-width="0.89" fill="none"><line x1="826" y1="410" x2="826" y2="422"/><line x1="821" y1="410" x2="831" y2="410"/><line x1="821" y1="422" x2="831" y2="422"/><line x1="823" y1="413" x2="829" y2="407"/><line x1="823" y1="425" x2="829" y2="419"/></g>
<text x="832" y="416" font-size="11.67" fill="#2A2A2A" transform="rotate(-90 832 416)" text-anchor="middle">150</text><g data-el="dim" stroke="#2A2A2A" stroke-width="0.89" fill="none"><line x1="826" y1="422" x2="826" y2="630"/><line x1="821" y1="422" x2="831" y2="422"/><line x1="821" y1="630" x2="831" y2="630"/><line x1="823" y1="425" x2="829" y2="419"/><line x1="823" y1="633" x2="829" y2="627"/></g>
<text x="832" y="526" font-size="11.67" fill="#2A2A2A" transform="rotate(-90 832 526)" text-anchor="middle">2600</text><g data-el="dim" stroke="#2A2A2A" stroke-width="0.89" fill="none"><line x1="848" y1="74" x2="848" y2="646"/><line x1="843" y1="74" x2="853" y2="74"/><line x1="843" y1="646" x2="853" y2="646"/><line x1="845" y1="77" x2="851" y2="71"/><line x1="845" y1="649" x2="851" y2="643"/></g>
<text x="854" y="360" font-size="11.67" fill="#2A2A2A" transform="rotate(-90 854 360)" text-anchor="middle">7150</text></g><g data-el="level"><rect x="264" y="266" width="47.400000000000006" height="15" fill="#FFFFFFEE" stroke="#2A2A2A" stroke-width="0.78"/><text x="287.7" y="277" font-size="10.56" font-weight="600" fill="#2A2A2A" text-anchor="middle">+2,490</text></g><text x="316.4" y="277" font-size="10.00" fill="#57514A">2 ур.</text><g data-el="level"><rect x="620" y="266" width="47.400000000000006" height="15" fill="#FFFFFFEE" stroke="#2A2A2A" stroke-width="0.78"/><text x="643.7" y="277" font-size="10.56" font-weight="600" fill="#2A2A2A" text-anchor="middle">+2,490</text></g><text x="672.4" y="277" font-size="10.00" fill="#57514A">2 ур.</text><g data-el="level"><rect x="188" y="542" width="47.400000000000006" height="15" fill="#FFFFFFEE" stroke="#2A2A2A" stroke-width="0.78"/><text x="211.7" y="553" font-size="10.56" font-weight="600" fill="#2A2A2A" text-anchor="middle">+2,490</text></g><text x="240.4" y="553" font-size="10.00" fill="#57514A">2 ур.</text><g data-el="level"><rect x="682" y="542" width="47.400000000000006" height="15" fill="#FFFFFFEE" stroke="#2A2A2A" stroke-width="0.78"/><text x="705.7" y="553" font-size="10.56" font-weight="600" fill="#2A2A2A" text-anchor="middle">+2,610</text></g><text x="734.4" y="553" font-size="10.00" fill="#57514A">1 ур.</text><g data-el="level"><rect x="464" y="542" width="47.400000000000006" height="15" fill="#FFFFFFEE" stroke="#2A2A2A" stroke-width="0.78"/><text x="487.7" y="553" font-size="10.56" font-weight="600" fill="#2A2A2A" text-anchor="middle">+2,610</text></g><text x="516.4" y="553" font-size="10.00" fill="#57514A">1 ур.</text><g data-el="room"></g><circle cx="294" cy="250" r="9" fill="#FFFFFFD9" stroke="#8A8478" stroke-width="1.00"/><text x="294" y="253.5" font-size="10.00" font-weight="700" text-anchor="middle" fill="#57514A">1</text><circle cx="650" cy="250" r="9" fill="#FFFFFFD9" stroke="#8A8478" stroke-width="1.00"/><text x="650" y="253.5" font-size="10.00" font-weight="700" text-anchor="middle" fill="#57514A">2</text><circle cx="218" cy="526" r="9" fill="#FFFFFFD9" stroke="#8A8478" stroke-width="1.00"/><text x="218" y="529.5" font-size="10.00" font-weight="700" text-anchor="middle" fill="#57514A">3</text><circle cx="712" cy="526" r="9" fill="#FFFFFFD9" stroke="#8A8478" stroke-width="1.00"/><text x="712" y="529.5" font-size="10.00" font-weight="700" text-anchor="middle" fill="#57514A">4</text><circle cx="494" cy="526" r="9" fill="#FFFFFFD9" stroke="#8A8478" stroke-width="1.00"/><text x="494" y="529.5" font-size="10.00" font-weight="700" text-anchor="middle" fill="#57514A">5</text><g data-el="legend"><rect x="878" y="74" width="268" height="130" fill="none" stroke="#8A8478" stroke-width="0.89"/><text x="888" y="92" font-size="11.67" font-weight="700" fill="#2E2A26">Условные обозначения</text><rect x="890" y="100" width="16" height="11" fill="#E9E4D8" stroke="#57514A" stroke-width="0.78"/><text x="916" y="111" font-size="10.00" fill="#57514A">короб 2-го уровня, отметка +2,490</text><rect x="890" y="120" width="16" height="11" fill="#F6F3EC" stroke="#57514A" stroke-width="0.78"/><text x="916" y="131" font-size="10.00" fill="#57514A">базовый потолок, отметка +2,610</text><rect x="890" y="140" width="16" height="11" fill="#E0D9C9" stroke="#57514A" stroke-width="0.78"/><text x="916" y="151" font-size="10.00" fill="#57514A">«парящий» остров 3-го уровня, +2,370</text><line x1="890" y1="165" x2="906" y2="165" stroke="#C29A5B" stroke-width="1.33" stroke-dasharray="5 3"/><text x="916" y="171" font-size="10.00" fill="#57514A">LED 3000K скрытая — 50.9 м.п. всего</text><circle cx="898" cy="185" r="4" fill="#FFF" stroke="#57514A" stroke-width="1.00"/><text x="916" y="191" font-size="10.00" fill="#57514A">точечные светильники — 25 шт. всего</text></g><g data-el="notes"></g><text x="70" y="720" font-size="11.11" font-weight="700" fill="#2E2A26">Примечания:</text><text x="70" y="734" font-size="10.00" fill="#57514A">1. Отметки и перепады уровней — на планах потолков помещений (раздел 05).</text><text x="70" y="748" font-size="10.00" fill="#57514A">2. Узел короба с LED-полкой — лист «Узел А», М 1:20.</text><text x="70" y="762" font-size="10.00" fill="#57514A">3. Закладные под все подвесные светильники и карнизы предусмотреть до зашивки ГКЛ.</text><text x="70" y="22" font-size="18.89" font-weight="700" fill="#2E2A26">План потолков</text><text x="70" y="40" font-size="12.22" fill="#7A756D">2–3 уровня · перепад 120 мм · скрытая LED 3000K · отметки от чистого пола</text></g><g data-el="stamp" stroke="#1C1C1C" stroke-width="1" fill="none"><rect x="868" y="954" width="700" height="150"/>
<line x1="868" y1="1017" x2="1568" y2="1017"/><line x1="1036" y1="954" x2="1036" y2="1017"/>
<line x1="1232" y1="1017" x2="1232" y2="1104"/>
<line x1="1309" y1="1017" x2="1309" y2="1104"/><line x1="1410.5" y1="1017" x2="1410.5" y2="1104"/><line x1="1487.5" y1="1017" x2="1487.5" y2="1104"/></g><text x="875" y="967" font-size="9.5" fill="#7A756D">Студия</text><text x="875" y="984" font-size="15" font-weight="700" fill="#1C1C1C">LINEA</text><text x="875" y="997" font-size="9.5" fill="#7A756D">Дизайн интерьера</text><text x="1043" y="967" font-size="9.5" fill="#7A756D">Объект</text><text x="1043" y="984" font-size="12" font-weight="600" fill="#1C1C1C">ЖК «Северный парк», Москва</text><text x="1043" y="997" font-size="9.5" fill="#7A756D">квартира · 56 м² · стиль «Джапанди»</text><text x="875" y="1030" font-size="9.5" fill="#7A756D">Наименование листа</text><text x="875" y="1047" font-size="12.5" font-weight="600" fill="#1C1C1C">План потолков</text><text x="1239" y="1030" font-size="9.5" fill="#7A756D">Стадия</text><text x="1239" y="1047" font-size="12" font-weight="600" fill="#1C1C1C">РП</text><text x="1316" y="1030" font-size="9.5" fill="#7A756D">Масштаб</text><text x="1316" y="1047" font-size="12" font-weight="600" fill="#1C1C1C">М 1:50</text><text x="1417.5" y="1030" font-size="9.5" fill="#7A756D">Лист</text><text x="1417.5" y="1047" font-size="12" font-weight="600" fill="#1C1C1C">7</text><text x="1494.5" y="1030" font-size="9.5" fill="#7A756D">Листов</text><text x="1494.5" y="1047" font-size="12" font-weight="600" fill="#1C1C1C">93</text><text x="1561" y="1098" font-size="9.5" fill="#8A8478" text-anchor="end">06.08.2026</text><g stroke="#1C1C1C" stroke-width="1"><line x1="90" y1="1082" x2="165.59199999999998" y2="1082"/><line x1="90" y1="1077" x2="90" y2="1087"/><line x1="165.59199999999998" y1="1077" x2="165.59199999999998" y2="1087"/></g><text x="90" y="1072" font-size="9.5" fill="#57514A">контроль: 1000 мм · печать 1:1, без подгонки под лист</text></svg>