<svg xmlns="http://www.w3.org/2000/svg" width="1587" height="1123" viewBox="0 0 1587 1123" font-family='Inter, "Helvetica Neue", Arial, sans-serif' data-sheet="smart-room" data-scale="1:40"><rect width="1587" height="1123" fill="#FFFFFF"/><rect x="76" y="19" width="1492" height="1085" fill="none" stroke="#1C1C1C" stroke-width="1.6"/><g transform="translate(333.9537399999999 210.57930000000002) scale(1.1811)"><defs><pattern id="rh85" width="7" height="7" patternUnits="userSpaceOnUse" patternTransform="rotate(45)"><rect width="7" height="7" fill="#9A9A9A"/><line x1="0" y1="0" x2="0" y2="7" stroke="#6E6E6E" stroke-width="1.78"/></pattern></defs><rect x="78" y="78" width="440" height="344" fill="#9A9A9A" stroke="#1C1C1C" stroke-width="1.33"/><rect x="78" y="78" width="440" height="12" fill="url(#rh85)"/><rect x="90" y="90" width="416" height="320" fill="#FFFFFF" stroke="#1C1C1C" stroke-width="1.07"/><rect x="218" y="78" width="144" height="12" fill="#FFFFFF" stroke="#1C1C1C" stroke-width="0.80"/><line x1="218" y1="81.8" x2="362" y2="81.8" stroke="#7FB2C8" stroke-width="1.42"/><line x1="218" y1="86.2" x2="362" y2="86.2" stroke="#1C1C1C" stroke-width="0.62"/><rect x="242" y="94.8" width="96" height="7.2" fill="#EAF3F7" stroke="#7FB2C8" stroke-width="0.80"/><line x1="248" y1="95.8" x2="248" y2="101" stroke="#7FB2C8" stroke-width="0.58"/><line x1="254" y1="95.8" x2="254" y2="101" stroke="#7FB2C8" stroke-width="0.58"/><line x1="260" y1="95.8" x2="260" y2="101" stroke="#7FB2C8" stroke-width="0.58"/><line x1="266" y1="95.8" x2="266" y2="101" stroke="#7FB2C8" stroke-width="0.58"/><line x1="272" y1="95.8" x2="272" y2="101" stroke="#7FB2C8" stroke-width="0.58"/><line x1="278" y1="95.8" x2="278" y2="101" stroke="#7FB2C8" stroke-width="0.58"/><line x1="284" y1="95.8" x2="284" y2="101" stroke="#7FB2C8" stroke-width="0.58"/><line x1="290" y1="95.8" x2="290" y2="101" stroke="#7FB2C8" stroke-width="0.58"/><line x1="296" y1="95.8" x2="296" y2="101" stroke="#7FB2C8" stroke-width="0.58"/><line x1="302" y1="95.8" x2="302" y2="101" stroke="#7FB2C8" stroke-width="0.58"/><line x1="308" y1="95.8" x2="308" y2="101" stroke="#7FB2C8" stroke-width="0.58"/><line x1="314" y1="95.8" x2="314" y2="101" stroke="#7FB2C8" stroke-width="0.58"/><line x1="320" y1="95.8" x2="320" y2="101" stroke="#7FB2C8" stroke-width="0.58"/><line x1="326" y1="95.8" x2="326" y2="101" stroke="#7FB2C8" stroke-width="0.58"/><line x1="332" y1="95.8" x2="332" y2="101" stroke="#7FB2C8" stroke-width="0.58"/><rect x="386" y="410" width="72" height="12" fill="#FFFFFF" stroke="#1C1C1C" stroke-width="0.80"/><line x1="386" y1="410" x2="386" y2="338" stroke="#2A2A2A" stroke-width="1.42"/><path d="M 458 410 A 72 72 0 0 0 386 338" fill="none" stroke="#2A2A2A" stroke-width="0.62"/><rect x="98" y="98" width="400" height="48" fill="none" stroke="#C5BFB2" stroke-width="0.71" rx="2"/><rect x="250" y="162" width="168" height="232" fill="none" stroke="#C5BFB2" stroke-width="0.71" rx="2"/><rect x="162" y="178" width="120" height="72" fill="none" stroke="#C5BFB2" stroke-width="0.71" rx="2"/><rect x="334" y="250" width="64" height="64" fill="none" stroke="#C5BFB2" stroke-width="0.71" rx="2"/><rect x="98" y="202" width="32" height="144" fill="none" stroke="#C5BFB2" stroke-width="0.71" rx="2"/><rect x="463" y="393" width="14" height="10" rx="2" fill="#2E2A26" stroke="#111" stroke-width="0.62"/><text x="470" y="401" font-size="8.00" font-weight="700" text-anchor="middle" fill="#FFF">1</text><path d="M 144.4 144 L 152.4 130 L 160.4 144 Z" fill="#D44B4B" stroke="#A33030" stroke-width="0.71"/><text x="152.4" y="142" font-size="8.00" font-weight="700" text-anchor="middle" fill="#FFF">PIR</text><path d="M 435.6 368 L 443.6 354 L 451.6 368 Z" fill="#D44B4B" stroke="#A33030" stroke-width="0.71"/><text x="443.6" y="366" font-size="8.00" font-weight="700" text-anchor="middle" fill="#FFF">PIR</text><circle cx="494" cy="250" r="9" fill="#EBF3FC" stroke="#3A7ABD" stroke-width="1.24"/><text x="494" y="254" font-size="8.00" font-weight="700" text-anchor="middle" fill="#3A7ABD">T</text><path d="M 131.6 367 L 140.6 378 L 131.6 389 L 122.6 378 Z" fill="#E8A000" stroke="#B07500" stroke-width="0.71"/><text x="131.6" y="382" font-size="8.00" font-weight="700" text-anchor="middle" fill="#FFF">H</text><circle cx="482" cy="394" r="9" fill="#27703F" stroke="#1B5030" stroke-width="0.71"/><text x="482" y="398" font-size="8.00" font-weight="700" text-anchor="middle" fill="#FFF">V</text><rect x="473" y="403" width="18" height="6" rx="2" fill="#27703F" stroke="#1B5030" stroke-width="0.62"/><rect x="291" y="393" width="14" height="10" rx="2" fill="#2E2A26" stroke="#111" stroke-width="0.62"/><text x="298" y="401" font-size="8.00" font-weight="700" text-anchor="middle" fill="#FFF">2</text><rect x="480" y="383" width="87.6" height="12" fill="#FBFAF6D9"/><text x="483" y="392" font-size="8.00" fill="#57514A">умн. выкл. · h900</text><rect x="162.4" y="123" width="92.39999999999999" height="12" fill="#FBFAF6D9"/><text x="165.4" y="132" font-size="8.00" fill="#57514A">PIR датчик · h1800</text><rect x="453.6" y="347" width="92.39999999999999" height="12" fill="#FBFAF6D9"/><text x="456.6" y="356" font-size="8.00" fill="#57514A">PIR датчик · h1800</text><rect x="504" y="235" width="87.6" height="12" fill="#FBFAF6D9"/><text x="507" y="244" font-size="8.00" fill="#57514A">термостат · h1400</text><rect x="141.6" y="363" width="87.6" height="12" fill="#FBFAF6D9"/><text x="144.6" y="372" font-size="8.00" fill="#57514A">smart hub · h1800</text><rect x="492" y="379" width="102" height="12" fill="#FBFAF6D9"/><text x="495" y="388" font-size="8.00" fill="#57514A">база пылесоса · h150</text><rect x="308" y="383" width="87.6" height="12" fill="#FBFAF6D9"/><text x="311" y="392" font-size="8.00" fill="#57514A">умн. выкл. · h900</text><text x="530" y="107" font-size="12.45" font-weight="700" fill="#2E2A26">Умный дом · Гостиная-кухня</text><line x1="530" y1="114" x2="810" y2="114" stroke="#3A7ABD" stroke-width="1.07"/><path d="M 536 130 L 544 118 L 552 130 Z" fill="#D44B4B"/><text x="556" y="128" font-size="8.89" fill="#2E2A26">PIR датчик</text><text x="750" y="128" font-size="8.89" fill="#57514A">2 шт.</text><text x="802" y="128" font-size="8.00" fill="#8A8478" text-anchor="end">h=1800</text><circle cx="542" cy="141" r="7" fill="#EBF3FC" stroke="#3A7ABD" stroke-width="1.07"/><text x="542" y="144" font-size="8.00" font-weight="700" text-anchor="middle" fill="#3A7ABD">T</text><text x="556" y="146" font-size="8.89" fill="#2E2A26">Термостат</text><text x="750" y="146" font-size="8.89" fill="#57514A">1 шт.</text><text x="802" y="146" font-size="8.00" fill="#8A8478" text-anchor="end">h=1400</text><rect x="535" y="154" width="14" height="10" rx="2" fill="#2E2A26"/><text x="542" y="162" font-size="8.00" font-weight="700" text-anchor="middle" fill="#FFF">3</text><text x="556" y="164" font-size="8.89" fill="#2E2A26">Умная панель (3кл.)</text><text x="750" y="164" font-size="8.89" fill="#57514A">2 шт.</text><text x="802" y="164" font-size="8.00" fill="#8A8478" text-anchor="end">h=900</text><circle cx="542" cy="177" r="7" fill="#27703F"/><text x="542" y="180" font-size="8.00" font-weight="700" text-anchor="middle" fill="#FFF">V</text><text x="556" y="182" font-size="8.89" fill="#2E2A26">База пылесоса</text><text x="750" y="182" font-size="8.89" fill="#57514A">1 шт.</text><text x="802" y="182" font-size="8.00" fill="#8A8478" text-anchor="end">h=150</text><path d="M 542 188 L 550 195 L 542 202 L 534 195 Z" fill="#E8A000"/><text x="542" y="198" font-size="8.00" font-weight="700" text-anchor="middle" fill="#FFF">H</text><text x="556" y="200" font-size="8.89" fill="#2E2A26">Smart Hub</text><text x="750" y="200" font-size="8.89" fill="#57514A">1 шт.</text><text x="802" y="200" font-size="8.00" fill="#8A8478" text-anchor="end">h=1800</text><text x="530" y="226" font-size="9.78" font-weight="700" fill="#2E2A26">Зоны автоматизации</text><rect x="530" y="234" width="280" height="30" rx="4" fill="#DAEAF833" stroke="#DDD8D0" stroke-width="0.62"/><text x="538" y="247" font-size="8.89" font-weight="700" fill="#2E2A26">Зона 1: Свет</text><text x="538" y="260" font-size="8.00" fill="#57514A">выключатели + диммеры</text><rect x="530" y="270" width="280" height="30" rx="4" fill="#FFF3CC44" stroke="#DDD8D0" stroke-width="0.62"/><text x="538" y="283" font-size="8.89" font-weight="700" fill="#2E2A26">Зона 2: Климат</text><text x="538" y="296" font-size="8.00" fill="#57514A">термостаты + вентиляция</text><rect x="530" y="306" width="280" height="30" rx="4" fill="#FDEAEA44" stroke="#DDD8D0" stroke-width="0.62"/><text x="538" y="319" font-size="8.89" font-weight="700" fill="#2E2A26">Зона 3: Безопасность</text><text x="538" y="332" font-size="8.00" fill="#57514A">PIR + датчики</text><rect x="530" y="342" width="280" height="30" rx="4" fill="#E2F4E944" stroke="#DDD8D0" stroke-width="0.62"/><text x="538" y="355" font-size="8.89" font-weight="700" fill="#2E2A26">Зона 4: Бытовая техника</text><text x="538" y="368" font-size="8.00" fill="#57514A">робот + умные розетки</text><text x="530" y="382" font-size="8.00" fill="#8A8478">Протокол: Zigbee 3.0 / Z-Wave</text><text x="530" y="394" font-size="8.00" fill="#8A8478">Хаб: Яндекс Алиса или Tuya Smart Life</text><text x="530" y="406" font-size="8.00" fill="#8A8478">Голосовое управление и приложение</text><text x="530" y="418" font-size="8.00" fill="#8A8478">Кабель КВВГнг 3×2,5 мм²</text><text x="530" y="430" font-size="8.00" fill="#8A8478">Выключатели Schneider Electric Atlas Design</text><g font-size="8.89" fill="#57514A"><path d="M 96 468 L 104 456 L 112 468 Z" fill="#D44B4B"/><g data-el="legend"></g><text x="78" y="450" font-size="8.89" font-weight="700" fill="#2E2A26">Условные обозначения</text><text x="118" y="466">PIR датчик</text><circle cx="230" cy="462" r="7" fill="#EBF3FC" stroke="#3A7ABD" stroke-width="1.07"/><text x="230" y="465" font-size="8.00" font-weight="700" text-anchor="middle" fill="#3A7ABD">T</text><text x="243" y="466">Термостат</text><circle cx="344" cy="462" r="7" fill="#27703F"/><text x="344" y="465" font-size="8.00" font-weight="700" text-anchor="middle" fill="#FFF">V</text><text x="357" y="466">База робота</text><path d="M 470 455 L 479 462 L 470 469 L 461 462 Z" fill="#E8A000"/><text x="470" y="465" font-size="8.00" font-weight="700" text-anchor="middle" fill="#FFF">H</text><text x="485" y="466">Smart Hub</text><rect x="564" y="455" width="14" height="10" rx="2" fill="#2E2A26"/><text x="571" y="463" font-size="8.00" font-weight="700" text-anchor="middle" fill="#FFF">N</text><text x="584" y="466">Умная панель</text></g><g data-el="dim" stroke="#2A2A2A" stroke-width="0.71" fill="none"><line x1="90" y1="444" x2="506" y2="444"/><line x1="90" y1="439" x2="90" y2="449"/><line x1="506" y1="439" x2="506" y2="449"/><line x1="87" y1="447" x2="93" y2="441"/><line x1="503" y1="447" x2="509" y2="441"/></g>
<text x="298" y="439" font-size="9.33" fill="#2A2A2A" text-anchor="middle">5200</text><g data-el="dim" stroke="#2A2A2A" stroke-width="0.71" fill="none"><line x1="540" y1="90" x2="540" y2="410"/><line x1="535" y1="90" x2="545" y2="90"/><line x1="535" y1="410" x2="545" y2="410"/><line x1="537" y1="93" x2="543" y2="87"/><line x1="537" y1="413" x2="543" y2="407"/></g>
<text x="546" y="250" font-size="9.33" fill="#2A2A2A" transform="rotate(-90 546 250)" text-anchor="middle">4000</text><text x="78" y="44" font-size="14.22" font-weight="700" fill="#2E2A26">Умный дом · Гостиная-кухня</text><text x="78" y="62" font-size="9.78" fill="#7A756D">Автоматизация: 7 устройств · Zigbee 3.0 / Z-Wave · высоты от чистого пола, мм</text></g><g data-el="stamp" stroke="#1C1C1C" stroke-width="1" fill="none"><rect x="868" y="954" width="700" height="150"/>
<line x1="868" y1="1017" x2="1568" y2="1017"/><line x1="1036" y1="954" x2="1036" y2="1017"/>
<line x1="1232" y1="1017" x2="1232" y2="1104"/>
<line x1="1309" y1="1017" x2="1309" y2="1104"/><line x1="1410.5" y1="1017" x2="1410.5" y2="1104"/><line x1="1487.5" y1="1017" x2="1487.5" y2="1104"/></g><text x="875" y="967" font-size="9.5" fill="#7A756D">Студия</text><text x="875" y="984" font-size="15" font-weight="700" fill="#1C1C1C">LINEA</text><text x="875" y="997" font-size="9.5" fill="#7A756D">Дизайн интерьера</text><text x="1043" y="967" font-size="9.5" fill="#7A756D">Объект</text><text x="1043" y="984" font-size="12" font-weight="600" fill="#1C1C1C">ЖК «Северный парк», Москва</text><text x="1043" y="997" font-size="9.5" fill="#7A756D">квартира · 56 м² · стиль «Джапанди»</text><text x="875" y="1030" font-size="9.5" fill="#7A756D">Наименование листа</text><text x="875" y="1047" font-size="12.5" font-weight="600" fill="#1C1C1C">Умный дом. Гостиная-кухня</text><text x="1239" y="1030" font-size="9.5" fill="#7A756D">Стадия</text><text x="1239" y="1047" font-size="12" font-weight="600" fill="#1C1C1C">РП</text><text x="1316" y="1030" font-size="9.5" fill="#7A756D">Масштаб</text><text x="1316" y="1047" font-size="12" font-weight="600" fill="#1C1C1C">М 1:40</text><text x="1417.5" y="1030" font-size="9.5" fill="#7A756D">Лист</text><text x="1417.5" y="1047" font-size="12" font-weight="600" fill="#1C1C1C">85</text><text x="1494.5" y="1030" font-size="9.5" fill="#7A756D">Листов</text><text x="1494.5" y="1047" font-size="12" font-weight="600" fill="#1C1C1C">94</text><text x="1561" y="1098" font-size="9.5" fill="#8A8478" text-anchor="end">06.08.2026</text><g stroke="#1C1C1C" stroke-width="1"><line x1="90" y1="1082" x2="184.488" y2="1082"/><line x1="90" y1="1077" x2="90" y2="1087"/><line x1="184.488" y1="1077" x2="184.488" y2="1087"/></g><text x="90" y="1072" font-size="9.5" fill="#57514A">контроль: 1000 мм · печать 1:1, без подгонки под лист</text></svg>